<svg xmlns="http://www.w3.org/2000/svg" width="1000" height="680" fill="none" viewBox="0 0 1000 680">
  <g class="g3014">
    <g class="Los que restan">
      <path fill="#B9B9B9" d="M608.308 562.519c-1.046-.727-3.364-1.64-5.151-2.029-1.788-.389-3.25-1.073-3.25-1.52 0-.448-2.238-2.52-4.973-4.606l-4.974-3.793 4.103-2.33c2.859-1.624 4.469-2.025 5.315-1.324 1.614 1.34 2.529.275 2.529-2.942 0-1.449.551-3.185 1.225-3.859.958-.957.962-1.645.02-3.153-.759-1.217-.843-2.152-.225-2.534.547-.338.98-5.657.98-12.047 0-10.496.154-11.441 1.864-11.441 1.051 0 3.094 1.775 4.684 4.07 1.551 2.238 4.11 4.736 5.686 5.552 2.915 1.507 6.766 1.07 6.766-.768 0-.599 1.196-.75 2.93-.369 2.36.518 3.156.223 4.086-1.515.757-1.414 1.803-1.989 3.033-1.667 1.033.27 2.404-.143 3.047-.918.929-1.119.617-1.921-1.515-3.897-1.476-1.368-3.336-2.488-4.133-2.488a1.453 1.453 0 0 1-1.448-1.45c0-.798-2.226-2.471-4.947-3.72-5.59-2.564-6.908-5.256-4.695-9.588.771-1.508 1.732-4.276 2.136-6.151.622-2.887.373-3.688-1.63-5.228-1.315-1.011-1.775-1.828-1.036-1.84 1.834-.031 9.134-8.027 9.339-10.228.091-.987.204-2.582.25-3.545.114-2.402 3.425-5.524 5.154-4.861.78.3 1.307 1.546 1.173 2.77-.171 1.561.714 2.841 2.964 4.284 3.801 2.437 3.709 3.87-.291 4.563-2.745.476-2.935.819-3.222 5.836-.274 4.788-.02 5.577 2.5 7.743 3.554 3.057 4.689 3.031 7.013-.158l1.874-2.573 3.459 1.823a1900.73 1900.73 0 0 1 3.818 2.016c.198.106-.512 1.456-1.577 3-2.458 3.564-6.259 15.025-6.071 18.307.213 3.721 1.498 4.86 7.433 6.585 6.024 1.752 6.145 3.106.36 4.031-3.734.597-5.645 2.539-4.431 4.502.318.516-.39 2.939-1.575 5.386-2.696 5.57-2.317 7.687 1.578 8.804 2.232.64 3.315 1.735 3.993 4.035.972 3.298 2.275 3.707 7.523 2.363 2.119-.543 2.845-.192 3.975 1.919 1.297 2.425 1.182 2.763-1.858 5.48-3.364 3.006-4.944 3.308-15.347 2.929-3.297-.12-5.925.26-6.33.914-.973 1.575-4.695-3.359-3.967-5.258 1.678-4.37-5.719-2.226-8.082 2.344-1.463 2.828-1.468 3.34-.059 5.49 1.884 2.877.535 4.066-2.653 2.339-3.206-1.735-9.96-1.657-11.854.137-2.135 2.023-3.268 2.142-5.516.578Z" class="path7385"/>
      <path fill="#B9B9B9" d="M586.907 545.941c-2.254-3.165-5-4.006-5-1.531 0 .895-.586 1.244-1.5.893-.825-.317-1.5-1.207-1.5-1.978 0-.772-.9-2.174-2-3.116-1.1-.941-2-2.035-2-2.429 0-.394 1.8-2.797 4-5.339 2.2-2.542 4-5.319 4-6.172 0-1.239.751-1.421 3.75-.905 8.684 1.495 9.25 1.719 9.25 3.657 0 1.529.715 1.92 3.508 1.92 3.259 0 3.42.143 2.26 2-.999 1.6-.999 2.401 0 4 .74 1.186.838 2 .24 2-.554 0-1.008 1.579-1.008 3.509 0 3.307-.122 3.436-2.131 2.25-1.716-1.014-2.22-1.011-2.59.012-.4 1.107-5.319 4.229-6.661 4.229-.265 0-1.443-1.35-2.618-3Z" class="path7379"/>
      <path fill="#B9B9B9" d="M616.892 519.454c-1.383-.732-3.992-3.387-5.798-5.901-2.387-3.325-3.882-4.508-5.481-4.341-1.607.167-2.287-.377-2.522-2.021-.297-2.07.067-2.25 4.555-2.25 2.683 0 5.73-.622 6.77-1.383 1.159-.847 2.493-1.064 3.441-.56.853.452 2.818 1.091 4.367 1.419 1.697.359 3.487 1.776 4.5 3.562.926 1.631 2.256 2.75 2.956 2.487 1.13-.426 5.227 2.691 5.227 3.975 0 .275-1.121.5-2.492.5-1.378 0-3.03.863-3.696 1.93-.947 1.516-1.613 1.712-3.103.915-1.466-.785-2.388-.559-4.053.991-1.904 1.772-2.451 1.851-4.671.677Z" class="path7367"/>
      <path fill="#B9B9B9" d="M605.294 502.191c-1.898-6.04-2.145-6.25-7.366-6.25-4.706 0-5.021-.159-5.021-2.531 0-1.392-.66-2.785-1.467-3.094-2.37-.91-6.951 1.073-8.033 3.476-1.63 3.62-4.82 2.37-6-2.351-1.405-5.62-2.184-6.495-5.809-6.531-3.623-.035-11.458-4.376-9.776-5.416.597-.369 1.089-2.332 1.094-4.362.008-3.45.351-3.861 5.25-6.302 3.572-1.781 5.147-3.137 4.945-4.261-.163-.907 1.074-4.147 2.75-7.2 1.675-3.053 3.046-6.202 3.046-6.998 0-1.16.369-1.216 1.859-.285 1.497.934 2.362.789 4.432-.742 1.415-1.046 3.049-2.928 3.632-4.181.968-2.08 1.257-2.156 3.318-.869 1.243.775 4.669 1.672 7.614 1.994l5.356.584-.402-3.437c-.253-2.166.066-3.615.863-3.921 1.647-.632 2.501.814 1.705 2.888-.879 2.29 3.435 6.734 5.806 5.981.999-.317 1.817-.148 1.817.374 0 .523.929 1.194 2.065 1.491 1.963.513 1.988.69.507 3.554-.857 1.657-1.288 3.716-.958 4.576.698 1.819.001 1.963-2.646.547-1.543-.826-2.21-.545-3.549 1.5-.907 1.384-2.272 2.516-3.034 2.516s-1.385.675-1.385 1.5.64 1.5 1.423 1.5c1.214 0 1.203.443-.077 3.009-1.675 3.358-1.015 8.798 1.17 9.636 1.965.754 5.298-1.346 9.947-6.267 4.561-4.829 5.972-5.301 7.471-2.5.819 1.53.317 2.59-2.714 5.724-2.046 2.115-4.356 3.857-5.134 3.872-2.475.046-2.299 2.341.309 4.05 2.095 1.373 2.42 2.184 1.925 4.814-.327 1.739-1.208 3.873-1.957 4.741-.75.868-1.363 2.909-1.363 4.535 0 2.202-.741 3.393-2.904 4.671-3.806 2.248-7.997 2.231-8.709-.035Z" class="path7365"/>
    </g>
    <g class="Sureste">
      <path fill="#43FFE9" d="M900.219 473.457c-10.549-12.069-11.907-13.287-13.356-11.976-.888.803-3.266 1.46-5.285 1.46h-3.671V456.5c0-3.542-.45-6.719-1-7.059-2.425-1.498-.945-6.136 3.25-10.186 7.288-7.036 21.576-12.765 36.881-14.788 2.68-.354 7.103-2.12 10.5-4.191 3.228-1.968 7.894-4.12 10.369-4.782 7.461-1.995 25.344.301 30.243 3.883 1.031.754 2.057 3.447 2.538 6.665.672 4.487.394 6.666-1.644 12.899l-2.453 7.5-19.924 15c-10.958 8.25-23.25 17.352-27.315 20.226l-7.391 5.226-11.742-13.436Z" class="path7357"/>
      <g class="g7472">
        <path fill="#43FFE9" d="M864.728 555.798c-.303-3.163-.581-3.39-4.821-3.93-2.475-.316-6.619-1.634-9.209-2.93-4.035-2.018-5.087-2.183-7.352-1.151-2.146.978-2.527 1.67-2.022 3.679.578 2.304.362 2.475-3.132 2.475-4.682 0-13.974-4.721-14.714-7.477-.299-1.112-.55-3.62-.557-5.573-.018-4.538-1.488-5.95-6.195-5.95-3.198 0-3.878-.385-4.408-2.497-1.246-4.965-.203-5.58 9.087-5.363 5.524.129 8.915.653 9.606 1.486 2.084 2.51-.066 3.478-6.188 2.785-4.298-.486-5.916-.342-5.916.528 0 .749.762.954 2.041.549 1.122-.357 4.427.103 7.344 1.02 4.901 1.541 5.268 1.871 4.828 4.33l-.476 2.662 2.003-2c1.102-1.1 1.81-2.337 1.573-2.75-.623-1.083 3.106-.921 6.244.272 2.414.918 2.635.82 2.17-.957-.406-1.551.198-2.215 2.789-3.07 4.903-1.618 6.816-6.948 3.362-9.367-1.152-.807-1.798-1.949-1.435-2.536.406-.656.062-.839-.891-.473-.854.327-1.552.997-1.552 1.488 0 .492-.45.893-1 .893-2.324 0-.625-1.979 5.031-5.861 3.318-2.276 6.446-4.139 6.953-4.139.506 0 3.104-2.182 5.772-4.85 4.702-4.703 4.884-5.105 5.949-13.172.889-6.731 1.533-8.649 3.375-10.038 2.139-1.614 2.268-2.367 2.141-12.589-.074-5.98.289-11.542.807-12.361.702-1.111.945-.663.957 1.76.015 3.214.069 3.25 4.815 3.25 2.64 0 5.227-.417 5.75-.927.592-.578 5.334 4.073 12.585 12.343l11.635 13.27 1.584 11.407c1.77 12.747 5.24 54.671 4.574 55.269-.235.211-9.878.905-21.428 1.542s-23.331 1.417-26.179 1.733l-5.179.576-.321-3.356Z" class="path7383"/>
        <path fill="#43FFE9" d="M836.407 527.478c2.2-1.361 4.525-2.488 5.167-2.505.641-.018 1.393-.594 1.671-1.282.277-.687.54-.766.583-.174.147 1.998-4.872 5.745-8.158 6.092l-3.263.344 4-2.475Z" class="path7373"/>
      </g>
      <g class="g7476">
        <path fill="#43FFE9" d="M919.473 551.691c-.306-2.337-1.264-13.25-2.13-24.25-.865-11-2.217-24.157-3.004-29.239-.788-5.081-1.432-9.456-1.432-9.721 0-.265 3.333-2.857 7.407-5.761 10.078-7.183 43.598-32.422 46.171-34.765 3.385-3.083 6.472-15.408 5.553-22.165l-.77-5.651 3.762-.601c2.069-.331 4.04-1.051 4.379-1.599 1.266-2.048-.575-2.712-5.229-1.885-3.319.59-6.297.432-9.773-.516l-5-1.364 6.5.091c3.575.05 9.049-.537 12.166-1.305 5.563-1.371 5.739-1.347 9.728 1.293 2.235 1.478 4.712 2.688 5.505 2.688 1.042 0 1.642 1.871 2.164 6.743 1.135 10.6-1.208 16.74-9.879 25.888-2.018 2.128-3.947 5.332-4.287 7.119-.341 1.788-.985 3.25-1.431 3.25-1.688 0-3.063 7.081-2.56 13.187.286 3.473.279 5.526-.016 4.563-.921-3.004-2.273-1.934-3.79 3-.804 2.613-1.492 3.963-1.53 3-.039-.962-.52-1.75-1.07-1.75-1.463 0-1.221 2.573.367 3.89 1.042.865 1.675.764 2.661-.423.711-.857 1.895-1.326 2.632-1.043.765.293 1.34-.152 1.34-1.038 0-.854.562-1.363 1.25-1.132 2.931.987-1.404 11.11-4.476 10.452-1.589-.34-3.144 2.89-2.362 4.909.691 1.783.801 1.791 2.02.135.709-.962 2.251-1.75 3.428-1.75 2.651 0 2.672.468.14 3-1.345 1.345-2.02 3.393-2.06 6.25-.033 2.338-.468 6.5-.967 9.25-.499 2.75-1.419 8.6-2.045 13-1.027 7.23-2.928 12.554-2.928 8.2 0-.935-.45-1.7-1-1.7s-.927-.337-.839-.75c.343-1.592-2.175-6.25-3.386-6.265-3.25-.039-3.741-1.447-2.241-6.431 1.674-5.562 1.897-9.554.533-9.554-.513 0-1.211.877-1.551 1.949-.34 1.072-1.519 2.235-2.62 2.584-1.466.466-1.724.97-.964 1.886 1.622 1.954-1.617 9.112-4.79 10.586-1.453.675-3.29 1.545-4.083 1.933-.792.388-1.868 2.023-2.392 3.634-.524 1.611-1.846 4.204-2.938 5.763-1.092 1.559-2.736 4.932-3.653 7.495-1.84 5.143-4.134 6.333-7.076 3.67-2.834-2.564-5.445-1.549-5.813 2.259-.286 2.953-.614 3.241-3.689 3.241-3.217 0-3.402-.199-3.932-4.25Z" class="path7381"/>
        <path fill="#43FFE9" d="M978.407 493.941c-.34-.55-.141-1 .441-1s1.059.45 1.059 1-.198 1-.441 1-.719-.45-1.059-1Z" class="path7363"/>
        <path fill="#43FFE9" d="M991.316 456.566c-.865-2.255 1.522-8.682 3.442-9.268.907-.276 2.436-.924 3.399-1.438 2.323-1.239 2.173-.427-1.073 6.008-2.882 5.715-4.783 7.263-5.768 4.698Z" class="path7353"/>
        <path fill="#43FFE9" d="M996.907 427.5c0-.857.45-1.559 1-1.559s1 .424 1 .941c0 .518-.45 1.22-1 1.559-.55.34-1-.083-1-.941Z" class="path7337"/>
        <path fill="#43FFE9" d="M996.907 419.941c0-.55.198-1 .441-1s.719.45 1.059 1c.34.55.141 1-.441 1s-1.059-.45-1.059-1Z" class="path7333"/>
      </g>
    </g>
    <g class="Noreste">
      <path fill="#6481F3" d="M622.464 405.991c-4.472-3.87-7.344-4.926-8.976-3.3-.414.413-2.176.776-3.917.807-1.74.032-6.764.386-11.164.787-4.4.401-9.987.37-12.415-.07-3.822-.693-4.566-1.246-5.533-4.118-1.235-3.669-5.038-7.099-7.909-7.133-1.301-.016-1.672.46-1.239 1.589.404 1.051.18 1.443-.643 1.128-1.835-.702-12.045-4.001-13.511-4.366-1.434-.357-1.73-5.374-.317-5.374.512 0 1.213-.884 1.556-1.964.737-2.322-3.276-8.331-5.097-7.632-.783.3-1.192-.748-1.192-3.057 0-3.209.208-3.461 2.4-2.911 1.32.331 2.425.256 2.455-.167.03-.423.169-2.629.309-4.904.141-2.274 1.056-5.357 2.035-6.85 1.604-2.45 2.186-2.654 5.946-2.09 3.538.53 4.465.281 6.134-1.65 2.403-2.779 2.105-5.142-1.191-9.464-1.942-2.546-2.357-3.939-1.806-6.058 1.215-4.672.881-8.194-.971-10.241-1.716-1.895-1.686-1.995.904-2.979 1.473-.56 4.12-2.37 5.882-4.021 1.762-1.651 3.975-3.004 4.918-3.007 2.029-.005 3.785-2.914 3.785-6.27 0-2.544 3.517-5.158 6.144-4.566 1.644.37 16.482-10.602 17.887-13.226 1.053-1.968.34-2.943-2.152-2.943-2.043 0-2.749-2.899-3.133-12.881l-.246-6.382-3.5-.276c-1.925-.152-4.003.138-4.617.644-.714.587-1.571.373-2.373-.592-.69-.832-2.502-1.513-4.026-1.513-2.813 0-3.984-1.493-3.984-5.081 0-1.198-.693-1.919-1.845-1.919-3.132 0-5.155-3.263-5.155-8.316 0-4.643-.014-4.662-3.898-5.283-3.823-.612-3.881-.684-3-3.755 1.243-4.336 1.169-4.646-1.114-4.646-1.779 0-1.939-.452-1.387-3.903.81-5.07-2.027-13.913-5.34-16.641l-2.482-2.044 4.079-2.699c3.516-2.327 4.427-2.54 6.61-1.545 2.457 1.119 3.057 2.835 2.65 7.579-.106 1.235.343 3.247.998 4.471.655 1.224 1.136 3.711 1.067 5.526-.068 1.816.763 4.88 1.847 6.809 1.083 1.93 2.002 4.732 2.04 6.228.063 2.419.165 2.499.93.719.888-2.067 1.038-1.773 1.4 2.75.055.688.852 1.814 1.771 2.502.919.688 1.967 2.6 2.329 4.25.506 2.304 1.208 2.998 3.032 2.998 3.165 0 7.617 1.966 9.468 4.18.892 1.068 3.526 2.046 6.5 2.414 3.522.436 5.597 1.32 7.021 2.992 1.716 2.014 3.228 2.458 10 2.936 11.239.792 10.898.701 13.564 3.648 3.284 3.629 6.564 4.511 7.367 1.98.582-1.831 4.396-3.635 5.452-2.578 1.368 1.367-2.277 15.608-5.74 22.428-2.094 4.125-4.33 9.3-4.967 11.5-3.387 11.684-4.198 15.139-4.212 17.932-.009 1.688-.452 3.743-.985 4.568-.862 1.334-.968 1.334-.954 0 .065-6.226 2.43-16.938 5.408-24.493 1.95-4.946 3.546-9.45 3.546-10.009 0-.559-.947-1.608-2.105-2.331-1.183-.739-1.807-.833-1.426-.216.374.604.365 2.53-.019 4.279l-.699 3.181-1.786-2.205c-2.231-2.756-3.576-2.801-4.271-.144-.33 1.261.013 2.273.884 2.607.782.3 1.422.974 1.422 1.497 0 .524-.419.694-.931.377-.512-.316-1.214-.118-1.559.441-.345.559-.116 1.016.51 1.016.748 0 .91 1.043.471 3.041-.407 1.851-.198 3.608.533 4.489.95 1.144.896 1.564-.26 2.007-1.1.423-1.36 1.846-1.053 5.762.387 4.938.325 5.1-1.228 3.201-1.544-1.887-1.608-1.645-1.15 4.326.439 5.734 1.667 9.983 1.667 5.77 0-1.571.149-1.589 1.552-.186 1.263 1.263 1.357 2.254.506 5.321-.576 2.073-1.117 5.569-1.203 7.769l-.155 4-.7-4.5c-.492-3.166-.744-.755-.85 8.14-.095 7.974.435 15.723 1.435 20.994 1.328 7.001 1.384 9.298.349 14.176-.708 3.337-1.551 5.31-1.975 4.624-.708-1.146-.93-.694-2.606 5.316-.268.963-.008 1.75.58 1.75.587 0 1.133-.787 1.214-1.75.081-.962.453.95.827 4.25.374 3.3.586 6.135.471 6.3-.116.164-2.315-1.523-4.888-3.75Z" class="path7329"/>
      <path fill="#6481F3" d="M539.813 374.691c-.052-.687-.014-5.446.083-10.574.164-8.606-.03-9.639-2.517-13.397-2.336-3.53-2.633-4.82-2.227-9.676.431-5.159.212-5.919-2.766-9.603-2.808-3.473-3.2-4.658-2.982-9 .139-2.75.568-5.751.954-6.669.408-.972-.021-2.771-1.028-4.307-1.655-2.527-1.643-2.751.293-5.331 1.931-2.574 2.353-2.677 9.561-2.339 6.845.321 7.646.158 8.673-1.759.986-1.844.799-2.24-1.475-3.104-1.433-.545-3.203-.991-3.933-.991s-1.587-.675-1.904-1.5c-.316-.825-1.516-1.5-2.666-1.5-1.291 0-1.825-.429-1.396-1.123.4-.647-1.539-3.176-4.573-5.965-4.672-4.295-5.199-5.181-4.668-7.838.33-1.648.164-3.265-.368-3.594-.532-.329-.967-1.607-.967-2.84 0-1.31-1.899-4.196-4.567-6.942l-4.568-4.699 6.302-5.409c5.154-4.425 6.638-5.229 8.153-4.419 1.018.546 1.927.843 2.019.66.092-.182 1.179-1.775 2.414-3.54 2.989-4.269 3.085-11.223.191-13.841-1.693-1.533-2.396-1.648-3.986-.655-2.724 1.701-3.958 1.5-3.958-.646 0-3.059 5.321-7.777 9.543-8.462 4.934-.8 6.481-2.447 7.177-7.636.744-5.548 3.955-7.363 7.381-4.171 3.046 2.838 4.25 2.681 7.308-.953 2.459-2.924 2.672-2.989 4.33-1.331 1.194 1.194 1.368 1.869.552 2.141-5.235 1.745-8.224 7.945-4.322 8.966 2.51.656 6.43 10.7 5.572 14.278-1.161 4.841-1.029 5.384 1.449 5.993 1.684.414 2.088.86 1.25 1.378-.682.422-1.24 2.09-1.24 3.707 0 2.379.43 2.944 2.25 2.957 3.762.025 4.907 1.479 5.593 7.101.61 4.998.89 5.452 3.907 6.34 2.557.753 3.253 1.5 3.265 3.5.024 3.871 1.311 5.251 4.217 4.521 1.954-.49 2.913-.108 4.146 1.652 1.254 1.79 1.867 2.025 2.813 1.08.665-.665 2.677-1.21 4.471-1.21h3.263l.287 9.25c.274 8.802.4 9.266 2.596 9.578 1.269.179 2.131.854 1.916 1.5-.664 1.994-15.13 12.668-16.822 12.413-2.924-.44-6.902 2.439-6.902 4.994 0 3.358-1.756 6.265-3.785 6.266-.943.001-3.484 1.576-5.647 3.5-2.162 1.925-4.764 3.499-5.781 3.499-2.901 0-3.284 2.777-.674 4.891 2.184 1.769 2.262 2.204 1.266 7.067-1.007 4.918-.916 5.381 1.78 9.103 1.563 2.157 2.841 4.408 2.841 5.002 0 2.333-3.017 3.937-7.406 3.937-5.435 0-7.548 2.415-8.351 9.54-.418 3.703-.818 4.413-2.235 3.963-2.153-.683-4.444 1.92-3.607 4.1.514 1.34.075 1.548-2.481 1.172-2.02-.296-3.285.013-3.62.885-.649 1.693-4.268 1.767-4.394.09Z" class="path7321"/>
      <path fill="#6481F3" d="M526.631 326.622c-.511-1.302-1.308-1.63-2.804-1.155-2.517.799-6.155-2.264-8.01-6.743-1.2-2.898-1.445-2.998-6.018-2.456-4.352.515-4.794.373-5.08-1.631-.201-1.418-1.015-2.196-2.299-2.197-1.092-.001-2.116-.676-2.275-1.5-.415-2.156-17.577-7.418-23.238-7.125-7.812.404-7.457.101-11.531 9.874-1.476 3.541-2.014 4.045-3.233 3.033-.805-.667-3.507-1.454-6.005-1.747-4.45-.523-4.64-.696-9.375-8.534-2.658-4.4-4.838-8.337-4.844-8.75-.007-.412 1.113-.75 2.488-.75 3.067 0 3.128-.702.319-3.692l-2.18-2.321 2.426-4.243c1.664-2.912 2.64-6.598 3.108-11.744.376-4.125.988-8.938 1.361-10.697.76-3.589-1.049-6.857-7.642-13.803-3.781-3.984-3.811-4.081-7.468-24.517l-3.671-20.517 3.333-4.983c1.833-2.74 3.688-5.133 4.123-5.316.435-.183.791-.731.791-1.218 0-.486 3.773-6.636 8.385-13.667 4.612-7.03 8.714-13.907 9.116-15.282.402-1.375 2.158-3.871 3.903-5.547 4.419-4.247 7.343-8.558 8.147-12.014.785-3.376 4.523-9.422 5.832-9.432.485-.003 1.709-.96 2.719-2.125 1.484-1.71 2.468-1.979 5.118-1.4 3.178.695 10.625 1.291 23.509 1.884 6.66.306 10.271 2.342 10.271 5.789 0 1.089.717 1.847 1.75 1.85 1.336.004 1.059.558-1.166 2.339-2.137 1.709-2.575 2.544-1.638 3.123.751.464 1.637.222 2.15-.588.481-.758.881-.929.891-.379.009.55 1.646 1.117 3.638 1.26 3.404.243 10.13 4.55 10.303 6.596.039.471 1.197 2.193 2.572 3.827s2.502 3.724 2.504 4.644c.002.92.902 3.147 2 4.948 1.098 1.8 1.996 4.233 1.996 5.405 0 1.173 1.189 3.691 2.642 5.596 1.453 1.905 2.716 4.198 2.806 5.094.316 3.168 2.703 6.695 6.107 9.028 1.895 1.298 3.445 2.64 3.446 2.981.001.342 1.039 1.828 2.307 3.303 2.869 3.335 2.528 8.684-.748 11.762l-2.24 2.104-2.605-2.605c-2.393-2.393-2.83-2.497-5.382-1.273-2.169 1.039-2.941 2.286-3.521 5.687-.968 5.668-2.056 6.843-7.12 7.683-4.963.823-9.589 5.477-9.651 9.71-.034 2.26.394 2.75 2.4 2.75 1.342 0 2.737-.479 3.099-1.065.432-.698 1.304-.48 2.534.633 3.93 3.556.524 13.932-4.574 13.932-2.703 0-14.35 9.127-14.444 11.319-.031.725 1.934 3.366 4.366 5.869 3.701 3.807 4.527 5.387 5.061 9.681.895 7.206 2.152 9.829 5.821 12.151 1.756 1.11 3.193 2.86 3.194 3.887.001 1.028.902 2.369 2.002 2.981 1.1.612 2.279 1.495 2.621 1.962.341.468 2.051 1.143 3.799 1.5 1.749.358 3.269 1.1 3.379 1.65.288 1.433-8.179 1.845-9.825.479-1.864-1.547-4.992-.407-7.448 2.715-2.401 3.052-2.618 6.57-.514 8.317 1.147.952 1.24 1.584.382 2.617-.621.749-.912 2.196-.645 3.217.267 1.02.193 3.61-.163 5.755-.489 2.941-.824 3.453-1.362 2.081Z" class="path7315"/>
    </g>
    <g class="Sur">
      <path fill="#DD14E0" d="M819.594 672.278c-4.503-4.216-9.312-8.773-10.687-10.127-2.471-2.434-2.474-2.457-.249-1.929 1.318.312 2.004.131 1.653-.436-.614-.993-4.591-2.756-7.589-3.363-3.183-.645-5.39-2.331-10.999-8.4-3.091-3.345-6.169-6.082-6.841-6.082-.868 0-.918-.363-.173-1.261.777-.936.402-1.566-1.45-2.441-2.141-1.01-2.327-.972-1.302.262 2.41 2.904-1.082 1.44-7.224-3.029-3.378-2.458-6.633-4.708-7.234-5-.744-.361-.694-.716.158-1.114 1.934-.903 1.476-2.417-.731-2.417-1.351 0-2.169-.874-2.573-2.75-.325-1.512-1.284-4.397-2.131-6.411-1.475-3.509-1.404-4.072 1.707-13.5 1.785-5.411 3.573-10.289 3.974-10.839.4-.55 1.022-2.229 1.381-3.731.374-1.567 1.843-3.348 3.443-4.175 3.009-1.557 5.18-5.313 5.18-8.966 0-1.254 1.157-3.366 2.571-4.694 1.853-1.741 2.434-3.115 2.082-4.924-.676-3.473 2.091-9.01 4.503-9.01 3.012 0 5.573 3.122 6.173 7.525.923 6.766 2.35 9.475 4.991 9.475 1.304 0 3.184.9 4.18 2 .995 1.1 2.303 1.993 2.905 1.983 1.382-.022 4.755-3.558 7.208-7.559 3.438-5.604 7.23-9.424 9.358-9.424 1.154 0 3.234-.743 4.621-1.652 2.432-1.593 2.682-1.539 6.994 1.5 2.46 1.734 4.893 3.152 5.408 3.152 1.673 0 3.019 3.588 1.802 4.805-1.611 1.61.351 3.594 5.107 5.164 2.163.713 3.741 1.8 3.508 2.414-.233.615 1.717 2.451 4.333 4.082 2.616 1.63 6.652 4.947 8.97 7.37 2.714 2.838 4.761 4.197 5.75 3.818.845-.325 1.536-.189 1.536.301s1.497 1.385 3.327 1.989c3.37 1.113 6.84 4.859 8.06 8.701.411 1.295 2.414 2.772 5.2 3.837 4.309 1.645 4.45 1.821 2.867 3.57-1.17 1.293-1.559 3.15-1.309 6.255l.355 4.415-16.5.658c-9.075.361-19.099.934-22.275 1.271l-5.775.614-5.899 11.118c-3.244 6.115-6.31 11.584-6.812 12.152-2.327 2.633-2.21 6.145.281 8.485 2.534 2.381 3.233 5.828 1.528 7.533-.849.849-1.097 3.504-1.061 11.347.011 2.529-1.588 5.101-3.173 5.101-.517 0-4.625-3.448-9.127-7.663Z" class="path7397"/>
      <path fill="#DD14E0" d="M674.643 643.813c-.884-.494-3.875-1.329-6.647-1.855-2.772-.525-6.885-2.177-9.141-3.669-3.193-2.113-5.911-2.889-12.274-3.501a1833.93 1833.93 0 0 1-11.985-1.188c-2.28-.24-4.89-1.415-6.5-2.928-4.91-4.614-9.437-6.723-14.439-6.727-2.613-.002-4.75-.29-4.75-.639 0-.349 1.012-1.667 2.25-2.927 1.237-1.261 2.7-2.769 3.25-3.351.55-.582 3.381-3.202 6.292-5.822l5.292-4.765-.936-4.872c-.749-3.903-1.832-5.693-5.441-9-5.275-4.833-6.557-8.343-6.814-18.655-.232-9.325 1.101-11.973 6.026-11.973 1.892 0 4.933.541 6.759 1.201 4.488 1.623 6.314.022 4.291-3.759-1.199-2.24-1.185-2.967.104-5.263 1.875-3.34 4.927-4.152 4.927-1.311 0 1.108.478 2.31 1.062 2.671.584.36 1.472 1.737 1.975 3.059 1.102 2.899 2.533 3.075 3.92.482.893-1.669 2.071-1.9 8.986-1.768 6.599.126 8.424-.195 10.686-1.884 3.235-2.415 9.256-12.932 9.324-16.285.034-1.729.468-2.195 1.629-1.75.87.334 1.977.607 2.461.607 1.517 0 4.957 4.294 4.957 6.189 0 .996.473 1.811 1.052 1.811.579 0 1.534 1.383 2.123 3.072 1.221 3.504 4.12 4.928 10.03 4.928 2.708 0 4.52.587 5.403 1.75 1.795 2.365 1.738 7.719-.098 9.242-1.559 1.294-1.289 4.577.716 8.719 1.561 3.225 9.052 4.249 12.08 1.651 3.114-2.672 9.583-5.806 10.367-5.022.363.363.135.66-.506.66-4.147 0 3.269 9.728 9.083 11.916 1.754.66 2.75 1.768 2.75 3.06 0 1.113.562 2.027 1.25 2.03 6.048.026 33.134 1.045 33.344 1.255.149.149-1.73 5.783-4.175 12.52l-4.445 12.249 2.013 3.945c2.138 4.192 2.59 7.025 1.12 7.025-.491 0-1.163-.703-1.493-1.563-.33-.86-1.096-1.257-1.702-.882-.606.374-2.391-.272-3.967-1.437-3.413-2.524-3.945-2.603-3.945-.586 0 .842.787 1.796 1.75 2.119 4.459 1.498 11.25 4.779 11.25 5.434 0 .401-3.038-.567-6.75-2.151-3.713-1.584-8.325-2.899-10.25-2.922-4.369-.053-6.967-1.426-4.494-2.376.921-.353 2.084-.389 2.584-.08.501.309.91.102.91-.461 0-.563-.938-1.526-2.083-2.139-1.639-.877-2.456-.778-3.829.465-2.324 2.103-3.088 1.991-3.088-.452 0-3.071-2.723-3.532-4.91-.831-2.271 2.804-1.746 4.192 1.244 3.291 1.482-.447 1.85-.326 1.166.382-.55.57-2.125 1.241-3.5 1.492-1.375.251-.25.297 2.5.103 3.458-.245 4.537-.059 3.5.605-.825.527-4.254.966-7.621.974-5.818.015-6.311.213-10 4.015-2.133 2.199-4.682 3.999-5.664 4-.982 0-2.886.721-4.23 1.602-1.345.881-4.249 2.007-6.454 2.503-2.205.495-6.152 2.213-8.77 3.816-2.619 1.604-6.336 3.169-8.261 3.48-7.759 1.25-9.726 1.332-11.264.471Z" class="path7395"/>
      <path fill="#DD14E0" d="M605.284 621.483c-.325-.848-1.022-1.542-1.549-1.542-.526 0-2.033-1.278-3.348-2.841-1.948-2.315-3.22-2.853-6.879-2.908-3.134-.048-5.181-.713-6.78-2.203-1.261-1.174-2.448-1.665-2.64-1.091-.568 1.706-2.965 1.192-5.092-1.092-1.516-1.627-2.705-1.991-5-1.532-1.657.331-3.247.221-3.535-.245-.699-1.132-4.554-2.102-4.554-1.147 0 .415 1.012 1.242 2.25 1.839 2.223 1.072 2.224 1.086.122 1.153-1.17.037-2.716-.643-3.437-1.511-.72-.867-3.588-2.719-6.372-4.114-2.785-1.394-5.878-3.254-6.874-4.132-1.398-1.232-1.987-1.312-2.58-.352-.756 1.223-4.109.626-4.109-.732 0-.382-1.529-.739-3.398-.791-1.869-.053-6.859-1.718-11.089-3.699-4.23-1.981-8.101-3.602-8.602-3.602-.501 0-.911-.656-.911-1.457 0-.802-2.025-2.645-4.5-4.095-2.475-1.451-4.5-3.218-4.5-3.928 0-1.633-4.17-4.397-7.754-5.14-1.705-.353-4.017-2.275-6.098-5.068-3.352-4.498-9.157-7.906-11.765-6.905-1.012.388-1.383-.392-1.383-2.912 0-2.766.555-3.73 2.823-4.903 4.696-2.429 5.618-4.113 4.167-7.616-1.085-2.619-1.013-3.293.533-5.001 2.304-2.546 6.923-2.529 9.487.036 1.658 1.657 2.754 1.888 6.25 1.317 7.7-1.258 16.875-.531 27.892 2.208 2.139.533 2.781.252 3.323-1.457.369-1.164.543-3.346.385-4.848-.305-2.912.663-5.231 2.186-5.231 1.229 0 3.954 6.619 3.954 9.603 0 1.719.72 2.54 2.655 3.026 2.186.548 3.115.108 5.25-2.49 2.152-2.618 3.3-3.155 6.724-3.148 3.59.008 4.281-.359 5.296-2.811.999-2.411 1.615-2.754 4.255-2.366 3.4.499 6.271 2.882 7.272 6.037.81 2.551 4.165 3.712 6.096 2.11.799-.663 1.452-.799 1.452-.302 0 1.243 9.724 11.341 10.921 11.341.531 0 1.559.788 2.284 1.75 1.624 2.154 5.237 4.25 7.327 4.25.857 0 2.716 1.157 4.129 2.571 2.437 2.437 2.542 2.97 2.004 10.25-.432 5.847-.221 8.143.884 9.621.798 1.067 1.451 2.755 1.451 3.75 0 .994.368 1.808.818 1.808.45 0 2.419 1.463 4.374 3.25 2.788 2.549 3.684 4.257 4.151 7.912.568 4.452.419 4.82-3.286 8.168-2.134 1.928-4.82 4.008-5.969 4.623-1.148.615-2.088 1.692-2.088 2.395 0 .702-1.357 2.28-3.016 3.506-2.573 1.903-3.102 2.003-3.607.688Z" class="path7393"/>
    </g>
    <g class="Centro">
      <path fill="#3FE337" d="M527.16 488.799c-.386-1.472-1.449-1.801-5.614-1.737-2.827.044-6.102.688-7.279 1.43-1.848 1.167-2.346 1.119-3.657-.35-.835-.935-1.672-3.051-1.861-4.701-.188-1.65-1.017-3.305-1.842-3.679-2.652-1.202-6.814-.864-8.357.679-2.311 2.311-5.532 1.839-6.825-1-.627-1.375-1.404-2.506-1.729-2.515-.324-.008-1.204-.405-1.957-.882-1.107-.701-.931-1.456.924-3.964 2.152-2.911 2.189-3.21.617-4.947-2.465-2.724-2.102-4.209 2.339-9.583 2.206-2.67 4.271-5.886 4.587-7.147.316-1.26 1.847-2.818 3.401-3.462 3.01-1.247 4.287-4.184 3.36-7.73-.348-1.331.207-3.258 1.436-4.983 1.101-1.547 2.161-3.932 2.353-5.3.431-3.055 3.843-3.806 7.058-1.554 1.231.862 3.825 1.57 5.765 1.572 2.658.004 4.5.898 7.47 3.625 2.168 1.991 5.245 3.994 6.839 4.451 2.444.701 3.29.408 5.416-1.875 2.767-2.971 8.376-3.762 9.364-1.319.308.762 3.346 2.241 6.75 3.286 3.712 1.14 6.189 2.457 6.189 3.292 0 .766.675 2.068 1.5 2.893 1.333 1.333 1.326 1.674-.07 3.069-1.159 1.16-2.056 1.309-3.434.571-2.9-1.552-4.996-1.183-4.996.88 0 1.033-.675 2.438-1.5 3.122-.825.685-1.5 2.079-1.5 3.098 0 1.525-.53 1.746-3 1.252-2.002-.4-3-.2-3 .602 0 .763-1.271 1.092-3.477.902-4.553-.392-6.699 2.225-5.859 7.146.328 1.925.936 3.95 1.351 4.5.415.55 1.064 2.451 1.443 4.224.444 2.075 2.444 4.801 5.616 7.653 5.449 4.899 6.116 6.623 2.561 6.623-1.301 0-3.451.854-4.777 1.898-3.411 2.683-14.901 2.654-15.605-.04Z" class="path7361"/>
      <path fill="#3FE337" d="M553.116 487.751c-.665-.665-1.215-1.682-1.222-2.26-.007-.577-2.445-3.183-5.418-5.79-3.658-3.208-5.631-5.795-6.103-8-.383-1.793-1.051-3.71-1.484-4.26-1.091-1.384-1.422-5.674-.585-7.589.435-.998 2.071-1.642 4.391-1.729 2.034-.076 3.845-.581 4.025-1.121.18-.54 1.646-.719 3.257-.397 2.46.492 2.93.265 2.93-1.416 0-1.102.675-2.563 1.5-3.248.825-.684 1.5-2.138 1.5-3.229 0-1.498.429-1.808 1.75-1.264 4.005 1.649 5.115 1.555 7.125-.603 2.108-2.263 2.109-2.27.118-4.124-2.32-2.162-2.272-1.917-1.023-5.202l.971-2.553 4.678 2.488c5.603 2.979 7.381 3.123 7.381.598 0-2.588 3.399-6.6 4.838-5.711.639.395 1.162 1.399 1.162 2.231 0 .832 1.146 3.468 2.546 5.858l2.546 4.345-2.793 2.59c-1.537 1.425-2.945 2.138-3.13 1.584-.813-2.439-3.835-.82-5.119 2.742-.743 2.063-2.402 5.418-3.686 7.457-1.284 2.039-2.096 4.33-1.803 5.091.352.918-1.168 2.19-4.515 3.779-4.754 2.257-5.046 2.615-5.046 6.191 0 2.451-.531 3.999-1.5 4.371-.825.316-1.5 1.652-1.5 2.968 0 1.317-.346 2.393-.768 2.393-.423 0-1.454 1.13-2.291 2.51-1.191 1.962-1.786 2.245-2.732 1.3Z" class="path7359"/>
      <path fill="#3FE337" d="M593.466 443.41c-1.068-.808-2.78-1.469-3.806-1.469-1.287 0-2.641-1.697-4.373-5.48-1.38-3.015-2.963-5.762-3.519-6.105-1.395-.863-5.861 3.526-5.861 5.76 0 2.578-2.969 2.299-6.975-.656-3.478-2.566-6.025-2.071-6.025 1.171 0 1.584-2.244 1.192-7.404-1.292-1.597-.769-3.509-1.398-4.25-1.398-.74 0-1.346-.675-1.346-1.5 0-1.107-1.159-1.5-4.428-1.5-3.531 0-4.825.506-6.393 2.5-2.778 3.531-5.297 3.122-10.223-1.658-3.63-3.523-4.966-4.181-8.744-4.309-2.948-.099-4.89-.739-5.729-1.887-.91-1.244-2.01-1.551-3.877-1.083-2.923.734-3.272-.167-1.206-3.116 2.1-2.999 3.135-13.097 1.539-15.02-1.069-1.288-.992-2.067.448-4.504 1.97-3.336 1.476-6.228-1.647-9.642-2.21-2.414-3.74-2.173-3.74.59 0 2.121-5.624 6.547-6.506 5.12-.984-1.592-2.49-1.141-2.538.759-.027 1.063-.794.332-1.952-1.858-1.061-2.009-3.215-4.15-4.857-4.83-5.031-2.084-7.386-5.448-7.898-11.279-.275-3.14-1.1-5.785-2.033-6.522-.864-.682-1.378-1.381-1.143-1.553 3.024-2.216 6.291-3.71 8.142-3.723 6.799-.045 11.014-2.578 19.822-11.913 8.565-9.076 8.735-9.353 8.202-13.327-.503-3.753-.385-4.016 1.572-3.504 2.435.637 3.741-.608 4.717-4.496.379-1.51 1.09-2.745 1.58-2.745.491 0 1.86-.968 3.044-2.151l2.152-2.152 2.821 3.402c2.431 2.932 2.825 4.278 2.848 9.747.021 4.867.53 7.052 2.184 9.374 1.872 2.63 2.143 4.299 2.052 12.655-.131 12.144.157 13.125 3.858 13.125 1.613 0 2.933-.498 2.933-1.108 0-1.317 5.322-.239 5.833 1.182.184.51 1.034.926 1.89.926 1.738 0 4.196 2.792 4.245 4.822.018.727-.643 1.996-1.468 2.821-1.825 1.825-1.947 4.778-.25 6.047.687.514 4.768 2.008 9.069 3.32 6.474 1.975 7.965 2.149 8.668 1.012 1.304-2.111 5.03.8 6.396 4.998.982 3.016 1.66 3.531 5.617 4.264 2.475.459 7.818.613 11.874.343 6.685-.445 7.735-.252 11.25 2.074 4.233 2.801 4.705 3.767 2.293 4.693-.871.334-1.382 1.17-1.135 1.857.656 1.829-1.113 4.749-2.876 4.749-.976 0-1.239.45-.73 1.25.436.688.822 1.475.858 1.75.035.275.423 1.553.861 2.839.615 1.807.32 2.673-1.299 3.807-2.474 1.733-2.671 4.089-.588 7.062 1.388 1.982 1.343 2.205-.561 2.809-1.688.536-1.95 1.192-1.428 3.57.631 2.871.577 2.913-3.69 2.882-2.381-.018-5.203-.693-6.27-1.5Z" class="path7347"/>
      <path fill="#3FE337" d="M460.446 427.985c-1.556-1.72-2.062-7.518-.916-10.504.343-.894 2.39-2.526 4.549-3.627 2.159-1.102 4.177-2.658 4.484-3.458.307-.8.984-1.455 1.506-1.455 1.514 0 9.659-3.902 10.296-4.932 1.251-2.023 9.143 7.924 8.212 10.349-.32.835.468 2.099 1.89 3.031 3.051 1.999 3.132 4.336.19 5.466-1.238.475-3.491 2.264-5.008 3.975-3.245 3.662-6.302 3.948-12.431 1.166-4.049-1.839-4.305-1.842-7.71-.106-3.314 1.689-3.614 1.695-5.062.095Z" class="path7339"/>
      <path fill="#3FE337" d="M547.574 547.275c-.367-.367-.667-1.589-.667-2.717 0-1.127-.713-3.917-1.585-6.199-1.541-4.036-1.512-4.294 1.076-9.401 1.959-3.866 2.911-7.791 3.61-14.884.956-9.703 2.398-15.133 4.02-15.133.484 0 .879-1.992.879-4.428 0-2.539.62-5.049 1.452-5.881.799-.799 1.156-1.749.794-2.111-.362-.362.36-.925 1.604-1.251 1.38-.361 2.058-1.125 1.738-1.96-.723-1.884.383-1.706 3.912.631 1.65 1.093 4.447 1.99 6.215 1.994 3.579.007 4.71 1.423 5.807 7.275.639 3.406.986 3.731 3.973 3.731 2.424 0 3.406-.515 3.792-1.988.558-2.134 5.223-4.432 6.898-3.397.559.345.774 1.842.477 3.326-.537 2.683-.507 2.698 5.112 2.629 5.297-.065 5.714.104 6.638 2.697.844 2.369.655 2.998-1.315 4.378-1.797 1.259-2.005 1.794-.949 2.446 1.962 1.211 2.586 20.83.7 22.025-2.439 1.545-4.848.991-4.848-1.116 0-1.111-.667-2-1.5-2-1.064 0-1.504-1.089-1.515-3.75-.008-2.062-.65-4.875-1.427-6.25a225.128 225.128 0 0 1-3.099-5.75c-1.748-3.366-3.459-4.284-3.459-1.855 0 .766-1.407 2.9-3.127 4.741-3.072 3.289-3.106 3.432-1.901 8.131 1.363 5.321 1.007 6.233-4.921 12.587-2.711 2.907-3.572 3.271-6.46 2.73-3.012-.566-3.451-.337-4.582 2.395-1.119 2.701-1.709 3.021-5.562 3.021-3.648 0-4.639.461-6.447 3-2.064 2.899-3.945 3.722-5.333 2.334Z" class="path7377"/>
      <path fill="#3FE337" d="M585.967 523.978c-2.829-.441-3.583-1.092-4.247-3.664-.705-2.734-.371-3.604 2.659-6.912 3.111-3.396 3.536-3.588 4.149-1.872.376 1.051 1.281 2.613 2.013 3.47.731.857 1.536 3.174 1.789 5.149.521 4.074-.572 4.732-6.363 3.829Z" class="path7369"/>
      <path fill="#3FE337" d="M431.657 448.178c-.963-.211-1.75-.77-1.75-1.243 0-.472-.96-1.163-2.132-1.536-1.173-.372-1.688-.965-1.145-1.317.543-.352 1.528-2.3 2.189-4.328.661-2.028 2.026-4.736 3.034-6.017 2.466-3.135 5.043-9.46 4.219-10.355-.366-.397.501-.443 1.927-.102 5.506 1.317 13.043-8.753 13.297-17.767.104-3.665-.118-3.988-3.316-4.824-4.901-1.282-8.073.604-8.073 4.799 0 3.813-1.776 5.586-4.802 4.795-2.633-.688-2.658-1.073-.556-8.562 1.575-5.612 1.564-5.91-.25-7.284-2.813-2.129-3.086-1.934-4.888 3.493-.911 2.743-2.073 5.245-2.581 5.559-1.158.716-1.196.93.914-5.173.974-2.819 2.535-5.889 3.467-6.822 3.015-3.015 1.801-4.115-5.304-4.809-2.151-.21-2.544.21-2.813 3.006-.187 1.939.143 3.25.819 3.25.623 0 .989 1.013.813 2.25-.25 1.767-.856 2.175-2.819 1.897-1.375-.194-2.847-.869-3.27-1.5-1.153-1.716-.169-19.306 1.455-26.016.782-3.228 2.185-6.428 3.118-7.11.933-.683 1.697-1.754 1.697-2.381 0-.627 1.129-1.14 2.509-1.14 2.386 0 2.49-.235 2.095-4.75-.603-6.91.23-9.83 3.248-11.385 1.456-.751 3.506-2.425 4.555-3.722 1.049-1.296 2.664-3.096 3.59-4 .925-.903 1.987-2.485 2.358-3.515.584-1.616 1.393-1.792 5.911-1.285 2.878.323 7.259.96 9.734 1.415 2.475.455 7.2.584 10.5.285l6-.543.294-6.662c.23-5.235-.23-7.951-2.152-12.681-1.346-3.311-2.19-6.275-1.877-6.588 1.124-1.124 10.817-.45 14.735 1.026 5.106 1.922 5.364 2.003 9.25 2.903 1.85.428 3.25 1.385 3.25 2.221 0 .808.805 1.679 1.789 1.937.984.257 2.222 1.452 2.75 2.656.829 1.888 1.614 2.143 5.711 1.856 2.939-.206 4.75.079 4.75.747 0 .594 1.654 2.91 3.675 5.147 2.897 3.207 4.166 3.944 6 3.484 3.259-.818 3.105 2.142-.19 3.643-1.492.68-2.848 2.4-3.335 4.229-.679 2.554-1.264 3.035-3.409 2.806-2.987-.318-4.21 2.06-3.176 6.179.553 2.204-.48 3.813-7.21 11.235-7.795 8.596-11.904 11.362-16.878 11.362-3.304 0-11.077 3.516-11.771 5.325-.292.76.321 2.111 1.362 3.002 1.381 1.182 1.735 2.407 1.31 4.531-.918 4.593 1.953 9.332 7.681 12.677 2.925 1.708 5.253 3.86 5.579 5.158.792 3.159 3.162 4.993 3.915 3.031.328-.855 1.351-1.3 2.373-1.033 2.196.575 7.074-3.708 7.074-6.21 0-1.714.085-1.713 2 .019 2.483 2.247 2.626 7.048.25 8.387-1.665.938-1.665 1.146.018 4.3 2.269 4.251 1.45 11.175-1.805 15.257l-2.331 2.923-3.298-3.224c-1.896-1.855-4.156-3.123-5.316-2.985-3.124.371-6.517-2.304-6.529-5.148-.006-1.564-1.658-4.296-4.384-7.252-3.717-4.03-4.557-4.521-5.594-3.27-1.598 1.925-6.833 4.512-9.13 4.512-.996 0-2.29.896-2.876 1.99-.585 1.094-2.358 2.659-3.94 3.477-5.032 2.602-6.067 4.293-6.033 9.855.03 4.866 1.563 8.608 3.578 8.734 1.783.111 5.526 5.939 4.96 7.722-.313.986-2.451 3.24-4.751 5.008-4.258 3.272-8.832 4.06-19.819 3.412-1.925-.114-4.625.16-6 .608-1.375.448-3.288.642-4.25.431Z" class="path7349"/>
    </g>
    <g class="Oriente">
      <path fill="#F0A502" d="M851.574 579.275c-.367-.367-.667-1.399-.667-2.294 0-.999-1.638-2.234-4.25-3.203-3.403-1.262-4.2-2.015-4-3.773.304-2.672-1.375-6.049-3.035-6.104-.668-.023-2.773-1.373-4.677-3-3.736-3.194-7.441-3.727-10.385-1.496-1.016.769-2.523 1.14-3.348.823-1.548-.594-4.37 2.225-8.722 8.713-3.263 4.866-6.134 8-7.328 8-.556 0-1.57-.675-2.255-1.5-.685-.825-2.288-1.5-3.563-1.5-2.951 0-3.397-.785-4.106-7.226-.69-6.27-3.651-9.774-8.262-9.774-2.371 0-3.365.673-4.641 3.139-.942 1.822-1.393 4.285-1.076 5.873.407 2.033-.053 3.298-1.791 4.932-1.287 1.208-2.651 3.628-3.033 5.376l-.693 3.18-1.021-2.5c-2.112-5.17-3.698-7.533-5.787-8.623-3.735-1.949-8.79-8.263-9.314-11.634-.278-1.783-.81-4.182-1.183-5.329-.517-1.593-.022-2.516 2.095-3.904 1.884-1.234 2.896-1.447 3.157-.663.548 1.645 1.585 1.437 4.218-.847 1.268-1.1 3.111-2 4.094-2 .983 0 2.107-.515 2.496-1.145.688-1.114-1.072-.912-6.247.717-1.667.524-1.659.462.087-.647 2.081-1.321 14.481-3.931 18.57-3.908 1.792.01 2.114.259 1.137.878-1.144.724-1.145.936-.009 1.315.745.248 1.941-.136 2.658-.853.717-.717 2.971-1.76 5.009-2.317 2.038-.557 5.074-2.256 6.748-3.776 2.847-2.585 6.857-5.264 7.88-5.264.248 0 .591 1.463.764 3.25.29 3.013.605 3.272 4.313 3.551 4.862.366 6.495 2.281 6.515 7.641.019 5.075.502 5.791 5.667 8.41 2.3 1.166 4.464 2.576 4.809 3.134.757 1.225 7.474 1.323 9.345.137.735-.466 1.185-1.922 1-3.235-.274-1.948.156-2.444 2.338-2.697 1.471-.17 4.49.618 6.71 1.75 2.22 1.133 5.581 2.059 7.469 2.059 2.139 0 3.651.57 4.012 1.51.319.831.885 6.906 1.257 13.5l.678 11.99h-6.483c-3.566 0-6.784-.3-7.15-.666Z" class="path7389"/>
      <g class="g7483">
        <path fill="#F0A502" d="M733.907 584.824c0-1.291-1.136-2.464-3.25-3.355-1.788-.754-4.82-3.001-6.738-4.993-2.738-2.842-3.191-3.806-2.105-4.477 1.666-1.03.731-4.058-1.253-4.058-.775 0-1.969.675-2.654 1.5-.685.825-1.953 1.5-2.818 1.5s-2.779 1.156-4.254 2.569c-6.474 6.202-15.494-2.033-10.319-9.421 1.376-1.964 1.432-2.929.388-6.658-1.398-4.992-2.17-5.476-7.865-4.927-2.303.222-4.132-.036-4.132-.582 0-.539-.9-.981-2-.981-1.111 0-2-.666-2-1.5 0-.825-.9-2.4-2-3.5s-2.014-2.562-2.032-3.25c-.056-2.206-2.436-4.5-6.375-6.146-5.22-2.181-5.846-2.042-5.162 1.146.399 1.862-.093 3.862-1.523 6.192l-2.111 3.441-1.683-2.231c-1.614-2.14-1.831-2.168-5.363-.692-3.469 1.449-3.742 1.426-4.716-.395-.569-1.063-1.035-2.602-1.035-3.419 0-.846-1.322-1.777-3.068-2.16-4.008-.881-4.6-2.738-2.025-6.354 1.151-1.617 2.093-4.291 2.093-5.941 0-2.653.493-3.157 4.25-4.346 5.722-1.81 5.947-4.902.44-6.047-5.54-1.151-7.381-2.402-7.956-5.407-.669-3.501 3.716-15.318 6.998-18.857 2.052-2.213 2.276-2.915 1.156-3.624-.763-.483-1.89-.886-2.503-.894-.614-.009-2.261-.917-3.661-2.018-2.573-2.024-5.724-1.799-5.724.409 0 2.576-2.145 3.449-3.975 1.618-.976-.976-2.22-1.943-2.764-2.15-.605-.229-.702-2.126-.251-4.875.407-2.475.796-4.131.865-3.681.069.449 1.455-.129 3.08-1.286 3.402-2.423 3.194-3.859-.901-6.196-2.145-1.225-2.999-2.544-3.234-5-.273-2.849-.66-3.289-2.646-3.011-2.804.393-6.174 3.557-6.174 5.797 0 1.328-.272 1.396-1.498.379-1.228-1.019-2.13-.76-5.02 1.445-1.938 1.477-4.195 3.712-5.017 4.966-.821 1.253-2.624 2.795-4.007 3.425-2.271 1.034-2.61.892-3.51-1.474-.788-2.071-.575-3.33 1.016-6.028l2.012-3.409-2.238-.9c-1.523-.612-1.718-.92-.61-.963.895-.035 2.268-1.027 3.05-2.206 1.182-1.779 1.772-1.954 3.491-1.035 2.451 1.312 3.331.666 3.331-2.442 0-1.258.516-3.419 1.147-4.804.884-1.94.858-2.866-.113-4.036-.694-.835-1.66-1.272-2.147-.971-.488.302-.887-.183-.887-1.078 0-1.19-.556-1.45-2.072-.969-2.685.852-5.89-1.953-5.208-4.559.276-1.058-.424-3.702-1.557-5.875l-2.059-3.951 2.026-2.576c1.487-1.89 1.852-3.365 1.374-5.544-.435-1.979-.127-3.717.922-5.215.866-1.236 1.574-2.999 1.574-3.918s.675-1.93 1.5-2.246c2.403-.923 1.762-2.388-2.232-5.103-3.821-2.596-3.726-2.874.883-2.577 1.458.094 2.947-.308 3.309-.894 1.053-1.704 2.035-1.302 7.163 2.935 2.662 2.2 5.343 4 5.957 4 1.158 0 3.01 3.92 7.065 14.944 1.303 3.544 3.248 7.379 4.322 8.522 1.074 1.143 3.115 4.993 4.535 8.556 1.523 3.822 2.284 5.043 1.856 2.978-.399-1.925-.67-5.525-.601-8 .109-3.939-.381-5.06-3.936-9-2.233-2.475-3.738-3.6-3.345-2.5.394 1.1.964 2.675 1.267 3.5.418 1.137.256 1.228-.669.378-.671-.618-1.344-2.643-1.496-4.5-.152-1.858-1.469-5.128-2.927-7.267-1.458-2.139-2.651-4.367-2.651-4.95 0-1.427.896-.327 5.451 6.697 2.089 3.221 5.269 6.725 7.066 7.785 3.747 2.211 4.825 5.012 3.255 8.458-1.38 3.03.529 14.606 3.31 20.06 1.055 2.069 1.918 4.372 1.918 5.116 0 .745 2.574 3.912 5.721 7.039 6.803 6.76 11.134 12.249 14.689 18.616 1.437 2.574 3.582 5.991 4.766 7.593 1.379 1.864 2.321 4.927 2.618 8.505.409 4.93.87 5.909 3.904 8.281 1.892 1.479 4.08 3.895 4.86 5.369.781 1.473 2.257 2.944 3.279 3.269 1.023.324 2.372 1.715 2.999 3.091.627 1.375 2.27 2.93 3.652 3.456 2.971 1.13 3.412 2.425.512 1.504-1.147-.364-2-.179-2 .433 0 .587.45 1.067 1 1.067s.887.558.75 1.239c-.163.807.729 1.129 2.553.922 1.542-.175 3.527.28 4.412 1.011 1.361 1.123 1.534 1.096 1.119-.172-.27-.825-1.468-1.643-2.662-1.819-1.195-.176-2.172-.718-2.172-1.206 0-.487 1.772-.26 3.939.504 2.553.901 5.914 1.186 9.552.81 5.329-.55 5.784-.414 8.97 2.674 1.846 1.789 4.855 3.559 6.687 3.934 2.032.415 3.778 1.577 4.476 2.977.629 1.262 1.611 2.762 2.182 3.332.571.571.776 1.771.456 2.666-.319.896-.212 1.294.239.885.451-.409 1.481.201 2.29 1.355 1.345 1.921 2.079 2.042 8.661 1.425l7.19-.674 1.179 3.935c.648 2.164 1.186 4.782 1.196 5.818.009 1.037 2.084 3.684 4.612 5.884 7.272 6.33 8.486 7.796 9.957 12.025 1.835 5.272 1.921 4.979-2.168 7.391-3.283 1.938-4.993 2.107-20.5 2.032-16.18-.077-16.918-.167-16.918-2.065Z" class="path7391"/>
        <path fill="#00C100" d="M642.353 436.854c-.369-.598-.171-1.588.441-2.2.817-.817 1.113-.528 1.113 1.087 0 2.415-.52 2.787-1.554 1.113Z" class="path7345"/>
      </g>
    </g>
    <g class="Occidente">
      <path fill="#F4CA3E" d="M426.726 534.363c-1.475-.778-2.968-2.315-3.318-3.418-.35-1.102-1.258-2.004-2.019-2.004-.76 0-1.841-.787-2.402-1.75-.971-1.666-1.021-1.666-1.05 0-.037 2.121.089 2.116-4.496.2-2.508-1.048-3.529-2.019-3.153-3 .306-.797.008-1.518-.662-1.602-2.343-.293-3.239-.544-6.034-1.692-1.548-.635-3.348-1.192-4-1.237-2.372-.163 4.986-2.691 11.555-3.97 5.058-.984 6.892-1.789 7.347-3.223.499-1.571 1.212-1.798 3.999-1.275 1.866.35 5.212.091 7.435-.575 5.744-1.721 6.546-.569 6.191 8.892-.158 4.213-.659 7.902-1.115 8.197-.455.294-1.125 1.489-1.488 2.654-.363 1.165-1.436 2.815-2.385 3.667-1.507 1.353-2.062 1.37-4.405.136Z" class="path7375"/>
      <path fill="#F4CA3E" d="M436.907 526.997c0-.98.432-4.061.96-6.845.751-3.959.638-5.709-.518-8.027l-1.479-2.963-8.678.246c-7.533.214-8.794.506-9.556 2.215-.695 1.557-2.942 2.346-10.747 3.772-9.118 1.667-9.991 1.68-11.496.175-.896-.896-2.333-1.629-3.193-1.629-1.915 0-6.264-4.44-8.293-8.467-.825-1.637-2.593-3.521-3.928-4.186-2.462-1.225-4.972-4.783-5.037-7.137-.038-1.389-4.049-7.494-5.285-8.043-.413-.183-.75-1.395-.75-2.693 0-1.297-.964-3.993-2.142-5.989-2.003-3.395-2.033-3.738-.467-5.307.922-.923 3.751-2.128 6.287-2.678 2.538-.55 5.109-1.816 5.717-2.814 2.478-4.069 9.306-10.686 11.027-10.686 1.013 0 3.351-.932 5.195-2.072 4.195-2.593 6.458-1.972 12.3 3.378l4.417 4.044 1.349-4.626c.742-2.544 1.792-4.899 2.333-5.233 1.464-.905 1.19-4.427-.474-6.091-1.919-1.919-.923-4.712 1.248-3.497 2.332 1.305 5.948-.723 6.711-3.763.518-2.064.088-3.096-2.06-4.944-2.544-2.188-2.644-2.576-1.578-6.132 1.5-5.006 1.63-4.512-2.364-8.933l-3.501-3.875 1.601-7.093c1.686-7.463 2.753-8.559 8.401-8.631 2.005-.025 2.565-.604 2.83-2.923.182-1.59-.222-3.232-.896-3.649-2.188-1.353-.184-4.122 2.733-3.777 2.724.323 4.622 2.817 2.144 2.817-1.238 0-2.894 4.566-4.488 12.378-.444 2.173-.249 2.765.795 2.42 1.472-.488 3.281-3.49 4.914-8.156.837-2.391 1.246-2.656 2.497-1.618.951.79 1.162 1.649.58 2.359-.504.615-1.231 3.659-1.615 6.765l-.699 5.648 3.143.691c4.01.881 6.062-.767 6.062-4.868 0-4.018 2.379-5.576 6.75-4.42 3.841 1.015 3.884 1.356 1.121 8.935-1.996 5.474-2.318 5.824-5.141 5.603-1.698-.133-3.205.309-3.455 1.013-.243.688.271 1.25 1.142 1.25.87 0 1.583.442 1.583.981 0 1.134-3.584 2.102-6.5 1.757-1.416-.168-1.914.274-1.706 1.512.161.963-.206 1.75-.818 1.75-.622 0-.855.807-.529 1.833.36 1.134-.185 2.525-1.43 3.652-1.106 1.001-2.769 4.226-3.697 7.168-.927 2.941-2.278 5.347-3.003 5.347-2.201 0-1.47 2.817.929 3.579 1.235.392 2.738 1.386 3.34 2.208.847 1.159 1.975 1.308 5.004.662 2.15-.459 5.935-.874 8.41-.921 15.059-.291 15.478-.376 20.336-4.161 5.247-4.088 6.138-7.723 2.664-10.867-2.615-2.366-2.523-3.304.458-4.662 2.004-.914 3.404-.713 7.59 1.088 5.946 2.558 8.662 2.051 13.691-2.555a686.547 686.547 0 0 1 6.32-5.699l3.184-2.828 3.176 3.078c1.747 1.693 3.911 3.078 4.809 3.078 1.353 0 1.479.536.737 3.123-.493 1.718-1.692 4.305-2.666 5.75-1.164 1.728-1.663 4.03-1.457 6.724.284 3.731.045 4.208-2.678 5.335-1.695.703-3.241 2.24-3.57 3.551-.32 1.272-2.219 4.271-4.22 6.665-5.29 6.325-5.911 8.103-3.903 11.168 1.602 2.446 1.577 2.7-.557 5.586-1.732 2.343-3.268 3.163-6.825 3.642-6.262.844-10.706 2.29-12.064 3.927-.625.752-4.16 1.877-7.856 2.501-7.796 1.315-8.294 1.583-9.952 5.353-1.476 3.357-.885 4.677 2.092 4.671 1.205-.003 4.289.746 6.853 1.665 4.387 1.573 4.605 1.821 3.699 4.206-.645 1.695-.583 4.124.186 7.329 1.029 4.29 1.39 4.733 3.442 4.218 1.261-.317 2.587-.099 2.948.484 1.062 1.719-3.42 6.849-6.527 7.471-1.577.315-5.372 2.614-8.436 5.109-4.25 3.462-6.123 4.398-7.905 3.95-1.285-.322-3.963-.137-5.953.413-3.176.877-3.616.781-3.616-.785Z" class="path7371"/>
      <path fill="#F4CA3E" d="M474.907 564.441c-1.925-.741-4.811-1.382-6.413-1.423-1.601-.042-4.976-1.381-7.5-2.974-2.523-1.594-7.052-3.411-10.064-4.038-5.602-1.167-14.023-5.413-14.023-7.072 0-.508-1.274-2.401-2.831-4.208-4.239-4.917-4.535-6.561-1.771-9.846 1.326-1.576 2.575-3.358 2.776-3.962.202-.603 1.836-1.139 3.632-1.19 1.796-.051 3.509-.488 3.808-.97.298-.483 2.018-.601 3.821-.263 2.851.535 4.016.016 8.908-3.969 3.096-2.522 6.56-4.585 7.699-4.585 3.004 0 8.097-5.918 7.744-9-.234-2.047-.784-2.465-3.036-2.311-2.237.153-2.75-.23-2.75-2.05 0-1.231-.467-2.705-1.037-3.276-.716-.716-.716-1.881 0-3.765.57-1.5 1.037-3.062 1.037-3.47 0-.972-6.732-3.924-10.804-4.738-3.615-.723-3.782-1.109-1.741-4.023 1.071-1.528 2.95-2.232 7.109-2.661 3.592-.371 7.036-1.499 9.447-3.094 2.825-1.87 5.75-2.688 11.463-3.205l7.669-.695 2.872 3.144c3.35 3.668 4.831 3.88 7.985 1.144 4.191-3.635 9-1.55 9 3.903 0 3.729 3.715 5.855 7.082 4.053 3.945-2.111 9.213-2.008 10.973.215 1.198 1.513 2.988 2.022 7.797 2.219 5.206.213 6.764-.13 9.389-2.067 3.423-2.526 7.659-3.023 9.559-1.123 1.448 1.448 1.611 7.8.2 7.8-.55 0-1 .863-1 1.917s-.401 2.067-.891 2.25c-.49.183-1.326 4.945-1.858 10.582-1.078 11.43-5.323 23.174-8.394 23.225-2.104.034-2.857 2.067-2.857 7.715 0 3.929-.231 4.427-1.75 3.776-4.009-1.717-12.41-2.781-22.66-2.87-7.765-.067-11.032-.455-11.333-1.345-.709-2.091-8.665-1.561-10.725.715-1.634 1.806-1.708 3.199-.419 7.965.219.809-1.241 2.51-3.363 3.918-3.374 2.238-3.75 2.922-3.75 6.82 0 4.078-.162 4.328-2.75 4.256-1.513-.041-4.325-.682-6.25-1.424Z" class="path7387"/>
      <g class="g7465">
        <path fill="#F4CA3E" d="M378.937 462.303c-.017-.627-1.605-1.434-3.53-1.796-1.925-.361-3.486-.973-3.468-1.361.017-.387 2.281-2.955 5.031-5.705 3.754-3.754 4.869-5.532 4.477-7.137-.287-1.176-.125-4.262.36-6.859.738-3.95.594-5.009-.884-6.487-.971-.972-2.179-1.935-2.684-2.142-.504-.206-1.947-2.062-3.206-4.125-1.905-3.121-2.024-3.75-.708-3.75 2.003 0 2.051-2.365.082-4-1.26-1.045-1.51-.865-1.562 1.128-.083 3.198-2.345-4.344-4.388-14.628-.873-4.4-1.857-9.012-2.186-10.25-.357-1.346-.149-2.25.519-2.25.614 0 1.117 1.151 1.117 2.558 0 2.39.278 2.537 4.25 2.25 3.197-.231 4.152-.679 3.854-1.808-.217-.825-.856-3.123-1.419-5.108-.884-3.12-.717-4.039 1.239-6.786 1.245-1.747 2.031-3.781 1.747-4.519-1.289-3.361 3.572-4.493 10.446-2.433 3.348 1.003 3.924 1.622 4.421 4.75.315 1.978.73 4.384.924 5.347.198.986-.75 2.617-2.169 3.733-4.696 3.694-.435 6.906 4.539 3.422 3.233-2.265 7.168-1.117 7.168 2.09 0 3.404 4.056 5.919 8.407 5.213l3.369-.547-1.376 5.169c-1.976 7.422-1.767 8.945 1.678 12.232 2.904 2.772 3.041 3.236 2.422 8.232-.599 4.841-.442 5.463 1.829 7.25 4.33 3.406.66 8.626-4.226 6.011-1.084-.581-2.226-1.056-2.537-1.056-1.231 0-.475 5.948.934 7.358 1.868 1.868 1.896 3.069.105 4.556-.768.637-1.7 2.777-2.071 4.756l-.675 3.599-3.757-3.669c-4.851-4.737-9.849-5.731-13.676-2.72-1.482 1.166-3.648 2.113-4.811 2.105-1.254-.009-3.63 1.721-5.835 4.25-2.046 2.346-3.734 3.753-3.75 3.127Z" class="path7355"/>
        <path fill="#F4CA3E" d="M350.366 435.875c-.921-1.489.147-2.299 2.061-1.564.884.339 1.327 1.069.984 1.623-.81 1.312-2.215 1.284-3.045-.059Z" class="path7343"/>
        <path fill="#F4CA3E" d="M342.922 432.191c.049-2.385 2.745-3.731 6.743-3.365 1.008.093 1.01.513.01 2.115-1.191 1.908-6.787 2.944-6.753 1.25Z" class="path7341"/>
        <path fill="#F4CA3E" d="M336.108 423.62c-1.542-4.262-1.547-4.227.732-4.399 2.215-.166 3.515 1.138 4.984 5.003.97 2.552.864 2.717-1.741 2.717-2.234 0-3.008-.646-3.975-3.321Z" class="path7335"/>
        <path fill="#F4CA3E" d="M329.907 415.882c0-1.132.45-1.78 1-1.441.55.34 1 1.267 1 2.059 0 .793-.45 1.441-1 1.441s-1-.926-1-2.059Z" class="path7331"/>
      </g>
    </g>
    <g class="Noroeste">
      <path fill="#EB6565" d="M406.769 399.937c-.902-.534-1.95-2.209-2.33-3.723-.38-1.514-1.217-3.088-1.861-3.497-1.959-1.246-5.604-.866-8.237.86-3.337 2.186-4.323.94-1.574-1.987 1.813-1.929 2.105-3.122 1.654-6.746-.302-2.421-.771-5.109-1.042-5.973-.568-1.811-10.506-5.237-12.723-4.387-.948.364-1.681-.175-2.024-1.486-.325-1.243-1.36-2.057-2.615-2.057-1.483 0-2.79-1.407-4.574-4.929-1.374-2.711-2.957-5.212-3.517-5.559-.56-.346-1.019-1.853-1.019-3.348 0-1.495-.644-3.638-1.431-4.762-.787-1.123-1.725-4.916-2.084-8.427-.724-7.067-2.958-12.231-6.875-15.887-2.406-2.245-2.866-2.327-6.67-1.188-4.357 1.306-6.94.355-6.94-2.555 0-2.9-5.366-11.968-9.116-15.405-2.136-1.958-3.884-4.299-3.884-5.203 0-.903-.506-2.753-1.125-4.111-.747-1.64-.885-5.35-.41-11.047l.715-8.579h5.363c5.281 0 10.251-1.479 11.692-3.479.404-.561.741-3.088.75-5.616.011-3.302.574-5.101 2.004-6.394 1.59-1.439 1.865-2.573 1.372-5.655-.558-3.49-.408-3.856 1.577-3.856 1.206 0 3.112-.491 4.234-1.092 1.625-.869 1.916-1.718 1.427-4.163-.643-3.215 1.444-6.745 3.989-6.745.702 0 1.576-.941 1.941-2.091.639-2.013.774-1.979 3.619.932 1.626 1.663 4.288 3.316 5.916 3.673 1.669.367 4.07 2.107 5.508 3.992 3.038 3.983 8.206 6.236 9.08 3.958.67-1.745 3.49-1.922 5.092-.319.859.859 1.86.848 4.016-.045 3.595-1.489 7.789-.097 8.74 2.901 1.167 3.675 4.578 1.996 9.118-4.488 3.413-4.873 4.875-6.129 7.856-6.749 2.111-.438 4.453-.338 5.529.238 1.026.549 3.18.998 4.786.998 2.23 0 4.108 1.255 7.941 5.308 2.761 2.92 5.793 6.803 6.738 8.631 1.624 3.139 1.624 3.531.002 7.128-1.252 2.777-1.533 5.029-1.038 8.328.566 3.773.254 5.282-1.877 9.1-2.715 4.863-3.229 7.971-1.495 9.042.675.418.439 1.109-.648 1.904-2.208 1.614-1.492 4.432 2.937 11.559 5.21 8.386 7.033 10 11.286 10 2.052 0 4.527.742 5.542 1.661 2.265 2.049 2.427 1.888 4.761-4.739 1.038-2.95 2.265-5.487 2.725-5.639 1.527-.501 4.753 9.122 5.16 15.389l.4 6.172-4.362.627c-2.398.345-6.836.356-9.861.026-16.249-1.775-17.963-1.759-18.68.168-.873 2.349-9.802 11.335-11.262 11.335-1.579 0-2.898 4.023-3.253 9.92-.198 3.305-.753 5.08-1.586 5.08-.705 0-1.583.788-1.952 1.75-.368.963-1.492 2.425-2.498 3.25-2.461 2.02-3.953 10.106-4.462 24.176-.266 7.362-.863 12.03-1.615 12.634-1.923 1.547-7.056 2.236-8.83 1.186Z" class="path7327"/>
      <g class="g7461">
        <path fill="#EB6565" d="M368.907 395.076c0-2.144-3.634-7.135-5.195-7.135-.639 0-.555.597.215 1.525.696.838 1.024 1.765.729 2.06-.828.828-6.724-5.81-7.372-8.301-.551-2.115-7.377-10.187-7.377-8.723 0 .387.984 2.331 2.186 4.321l2.186 3.618-2.289-1.997c-1.258-1.099-2.983-3.349-3.832-5-.849-1.652-3.953-5.752-6.898-9.113-2.944-3.361-5.353-6.706-5.353-7.432 0-1.989-7.34-13.92-8.576-13.94-.591-.01-2.156-1.168-3.476-2.573-1.973-2.1-2.066-2.427-.522-1.835 1.67.641 1.626.379-.402-2.363-1.255-1.697-2.826-2.876-3.492-2.62-.667.255-1.789-.231-2.494-1.081-.706-.85-2.095-1.546-3.088-1.546-.993 0-2.728-1.237-3.856-2.75-1.128-1.512-3.049-3.749-4.27-4.969-2.993-2.996-1.613-4.046 1.795-1.366 1.912 1.505 3.038 1.828 3.78 1.087 1.782-1.783-.764-4.547-3.87-4.2-1.485.165-3.28-.18-3.988-.768-.708-.587-1.935-.819-2.727-.516-.792.304-2.284-.379-3.315-1.519-1.668-1.843-1.733-2.464-.586-5.634.937-2.593.988-3.863.188-4.664-.801-.801-1.101-.365-1.101 1.599 0 1.485-.45 2.7-1 2.7s-1-.707-1-1.571-.679-2.251-1.509-3.081c-2.122-2.122-.926-3.463 2.072-2.324 2.283.868 2.403.781 1.429-1.038-.584-1.092-1.416-1.986-1.847-1.986-.432 0-2.281-1.336-4.11-2.969-1.83-1.633-3.675-2.753-4.1-2.49-.426.263-1.616-.59-2.643-1.896-1.027-1.307-2.87-2.693-4.095-3.082-1.224-.389-2.01-1.056-1.746-1.483.264-.427-.405-1.726-1.486-2.886-1.081-1.161-1.965-2.804-1.965-3.652 0-2.018-1.891-1.988-2.671.042-.489 1.275-.772 1.324-1.453.25-.65-1.025-.849-.933-.861.395-.013 1.47-.381 1.562-2.46.615-3.213-1.464-3.945-3.585-1.504-4.36 2.072-.657 2.545-1.997 1.034-2.931-.503-.311-1.101-.005-1.329.679-.329.986-1.005.976-3.254-.049-2.537-1.156-2.702-1.128-1.548.262 2.34 2.82-.763 1.705-4.188-1.504-3.116-2.92-3.151-3.032-.766-2.448l2.5.613-2.368-2.058c-1.944-1.691-2.146-2.326-1.127-3.553.978-1.18.982-1.805.016-2.969-.983-1.185-.801-2.349.928-5.919 1.183-2.445 2.868-5.04 3.745-5.768 1.406-1.167 1.511-1.029.888 1.169l-.707 2.492 1.92-2.386 1.92-2.387.661 2.637c.364 1.45 1.072 2.636 1.573 2.636.531 0 .562-1.216.075-2.917-.806-2.809-.563-3.091 6.505-7.568 7.709-4.883 14.888-11.85 16.453-15.968.901-2.369 1.016-2.394 4.064-.874 2.52 1.257 3.641 1.336 5.698.398 1.408-.641 2.873-.807 3.254-.368.951 1.092 4.785 16.728 5.51 22.466.723 5.725 1.706 6.592 8.575 7.574 5.054.723 5.44.974 5.755 3.743.186 1.632 1.874 4.667 3.75 6.744 3.742 4.142 3.931 5.406 2.396 16.019-.772 5.338-.666 7.636.506 11 .814 2.338 1.487 4.899 1.495 5.691.008.792 1.757 3.042 3.886 5 2.308 2.124 5.34 6.688 7.513 11.31 3.845 8.18 4.382 8.538 10.278 6.847 2.737-.785 3.473-.556 5.622 1.75 2.635 2.827 5.972 9.282 5.565 10.762-.523 1.897 1.408 10.92 2.744 12.828.774 1.105 1.407 3.232 1.407 4.727s.459 3.002 1.019 3.348c.56.347 2.143 2.848 3.517 5.559 1.747 3.448 3.103 4.929 4.512 4.929 2.391 0 3.691 2.661 2.085 4.268-.623.623-1.133 2.067-1.133 3.21 0 1.143-.729 3.118-1.62 4.39-1.594 2.275-1.538 7.25.128 11.382.582 1.443.16 1.75-2.401 1.75-2.366 0-3.107-.445-3.107-1.865Z" class="path7325"/>
        <path fill="#EB6565" d="M291.259 311.702c-1.837-2.972-5.255-10.191-4.964-10.482.536-.536 5.236 7.074 5.849 9.471.638 2.496.283 2.901-.885 1.011Z" class="path7307"/>
      </g>
      <path fill="#EB6565" d="M333.157 278.209c-3.206-.289-4.25-.805-4.25-2.104 0-.947-1.536-3.303-3.414-5.236-1.937-1.995-3.559-4.791-3.75-6.467-.313-2.745-.721-3.012-5.836-3.811-3.025-.472-6.034-1.293-6.687-1.824-.653-.531-1.488-3.522-1.856-6.646-.368-3.124-1.658-9.28-2.867-13.68l-2.197-8-5.055.308c-4.717.288-5.333.041-9.224-3.698l-4.169-4.006.671-8.052c.445-5.335.321-8.052-.368-8.052-.571 0-1.904-1.687-2.961-3.75a595.284 595.284 0 0 0-4.279-8.14c-1.305-2.432-2.39-6.223-2.432-8.5l-.076-4.11 7.75.317c8.671.355 8.739.284 6.701-7.052-.627-2.26-.684-4.432-.144-5.5.491-.971.623-7.261.293-13.979-.574-11.685-.513-12.227 1.4-12.5 1.696-.242 2.115-1.351 2.754-7.286 1.315-12.209 1.284-27.806-.06-30.224-.68-1.223-2.039-8.329-3.019-15.79-2.036-15.495-1.839-16.111 4.79-14.991l4.035.681V67.03c0-6.886.322-9.088 1.327-9.088.73 0 11.193.662 23.25 1.472 12.058.809 25.431 1.596 29.718 1.748l7.795.277 2.377 5.002c2.293 4.823 8.317 12.501 9.808 12.501.767 0 4.725 3.704 4.725 4.422 0 .232 2.925 3.434 6.5 7.116 3.575 3.682 6.5 7.044 6.5 7.47 0 .427 1.211 1.08 2.692 1.451 3.512.882 11.029 8.994 11.866 12.806.36 1.64 1.578 4.547 2.707 6.46 1.141 1.934 1.993 5.028 1.92 6.973-.072 1.922.532 5.082 1.342 7.021s1.478 4.258 1.483 5.154c.006.895 2.706 3.591 6 5.991 3.295 2.4 5.99 4.74 5.99 5.199 0 1.85 4.699 5.719 7.758 6.388 1.792.392 3.701 1.539 4.242 2.549.541 1.011 2.306 2.128 3.923 2.483 1.616.355 3.514 1.339 4.217 2.186 1.127 1.358 5.169 3.514 7.027 3.748 2.169.272.778 2.964-9.659 18.691-6.347 9.566-11.911 18.067-12.365 18.892-.489.89.518 8.825 2.475 19.5 4.255 23.217 4.277 21.942-.368 21.009-11.669-2.342-12.391-2.067-19.455 7.413-4.03 5.408-5.125 5.845-6.589 2.632-1.368-3.002-5.522-4.25-9.344-2.808-2.156.814-3.048.735-3.946-.347-1.52-1.831-3.4-1.771-5.342.17-2.131 2.131-5.002 1.048-8.145-3.072-1.437-1.885-3.854-3.651-5.487-4.009-1.604-.353-4.159-1.957-5.676-3.564-3.065-3.247-4.763-3.677-5.628-1.424-.316.825-1.152 1.515-1.857 1.532-2.285.056-5.017 4.91-4.55 8.087.496 3.384.124 3.763-4.193 4.265-4.039.471-4.074.525-3.099 4.845.678 3.006.486 3.982-1.056 5.377-1.318 1.193-1.888 3.083-1.898 6.299-.009 2.528-.346 5.055-.75 5.616-.834 1.158-5.966 3.57-7.032 3.305-.387-.096-2.616-.347-4.953-.558Z" class="path7297"/>
      <g class="g7445">
        <g class="g7414">
          <path fill="#EB6565" d="M225.915 372.45c-1.517-1.614-2.594-4.342-3.06-7.75-.396-2.892-2.008-7.912-3.584-11.155-2.342-4.823-3.756-6.389-7.764-8.597-3.123-1.721-5.555-3.978-6.708-6.226-2.62-5.106-16.339-18.621-19.633-19.34-4.333-.947-8.259-2.607-8.259-3.492 0-.445 1.462-.405 3.25.089l3.25.898-2.75-2.42c-1.513-1.331-2.75-3.264-2.75-4.297 0-2.035-3.877-2.567-5.235-.719-.404.55-.756-.125-.782-1.5-.025-1.375-.707-3.373-1.515-4.441-.807-1.067-1.521-2.867-1.586-4-.084-1.446-.346-1.166-.882.941-.719 2.827-.774 2.856-.952.5-.172-2.284-.256-2.328-.977-.5-.688 1.747-.88 1.588-1.511-1.258-.398-1.793-1.136-3.004-1.641-2.691-.506.312-.919-.134-.919-.992 0-.857.506-1.446 1.125-1.309.619.138 1.352-.375 1.63-1.139.309-.851.067-1.118-.625-.691-1.579.976-1.425-.249.87-6.92 1.1-3.197 2-6.642 2-7.656 0-1.014.505-1.844 1.122-1.844.776 0 .738-.463-.122-1.5-.86-1.036-.898-1.5-.123-1.5.693 0 1.069-1.82.981-4.75l-.142-4.75-.716 4c-.71 3.966-.718 3.953-.902-1.5-.231-6.825-2.257-14.78-3.646-14.317-.572.191-1.618-1.254-2.326-3.21-1.007-2.784-1.692-3.428-3.155-2.963-1.118.355-2.604-.131-3.7-1.208-1.008-.991-3.098-2.463-4.645-3.27-1.547-.808-2.321-1.633-1.719-1.834 1.645-.548 1.313-2.198-.442-2.198-2.456 0-6.392-3.026-5.832-4.485.281-.734-.224-2.757-1.124-4.496-1.355-2.622-1.412-3.431-.33-4.735 1.146-1.381 1.002-1.477-1.187-.795-2.416.753-2.438.717-.742-1.184 1.775-1.991 2.42-6.305.942-6.305-.444 0-1.588 1.77-2.542 3.933-1.669 3.783-1.851 3.893-4.754 2.881-1.929-.672-2.827-1.55-2.489-2.433.303-.788-.1-1.381-.938-1.381-.808 0-1.469.81-1.469 1.8s-.505 2.305-1.122 2.922c-1.274 1.275-4.162.547-3.309-.833.307-.497-.137-1.169-.985-1.495-.849-.326-2.489-2.122-3.645-3.993-1.421-2.298-2.86-3.401-4.439-3.401-1.579 0-3.019-1.102-4.439-3.4-2.216-3.586-4.217-4.861-6.346-4.044-2.37.91-5.713-3.362-5.747-7.345-.038-4.437-1.539-6.648-5.118-7.539-1.745-.434-3.008-1.686-3.698-3.666-.576-1.653-1.662-3.006-2.412-3.006-1.782 0-6.004-5.719-4.78-6.475 1.26-.779 4.762-.085 9.439 1.869 4.786 1.999 8.636 2.047 11.16.138 2.65-2.004 3.441-1.889 3.441.501 0 1.189.934 2.385 2.25 2.882 2.494.943 4.095.452 3.207-.984-.316-.512.126-.931.984-.931.857 0 1.559-.458 1.559-1.019 0-.588-1.06-.753-2.511-.388-2.117.531-2.404.349-1.827-1.155.533-1.387.31-1.641-.998-1.139-1.336.513-1.217.013.577-2.426 2.077-2.825 2.285-2.903 2.578-.974.398 2.612.441 2.621 23.874 4.74 10.557.955 18.986 2.072 18.732 2.483-.988 1.598 4.906 11.998 7.584 13.383 2.928 1.514 6.819 8.658 7.711 14.159.385 2.373 1.468 3.84 3.891 5.269 2.909 1.717 3.278 2.37 2.772 4.903-.335 1.676-.115 3.212.516 3.602.606.374 1.111 2.791 1.123 5.371.025 5.289 3.035 10.523 4.953 8.613.776-.774.508-1.809-.946-3.658-1.999-2.541-2.884-9.764-1.196-9.764 1.56 0 7.2 7.918 7.81 10.964.334 1.67 1.225 3.036 1.981 3.036.893 0 1.36 1.14 1.332 3.25-.06 4.589 1.105 11.031 2.253 12.462.636.793.556 2.469-.232 4.858-1.109 3.36-.939 4.191 2.151 10.548 1.845 3.795 4.033 7.116 4.863 7.38.83.263 1.555 1.496 1.612 2.74.29 6.397 1.711 11.552 4.382 15.892 3.7 6.014 4.609 9.45 3.009 11.377-.874 1.053-1.02 3.429-.506 8.231.902 8.414 3.322 12.23 7.83 12.341 1.75.044 2.619.306 1.932.584-1.978.798-1.454 2.337.795 2.337 1.757 0 1.966-.458 1.479-3.25-.312-1.787-.139-3.9.384-4.695.762-1.157 1.962-.385 6.022 3.872 2.788 2.924 5.07 5.936 5.07 6.695 0 .804 1.042 1.378 2.5 1.378 1.916 0 2.5.519 2.5 2.221 0 1.222.562 4.676 1.25 7.676 1.015 4.429 1.851 5.811 4.449 7.348 5.402 3.196 5.582 12 .358 17.505-1.174 1.238-2.776 2.25-3.561 2.25-.784 0-3.44 1.125-5.903 2.5-2.463 1.375-4.65 2.5-4.861 2.5-.211 0-1.437-1.121-2.724-2.491Z" class="path7319"/>
          <path fill="#EB6565" d="M234.226 326.201c-1.53-4.886-.926-5.304 1.623-1.122 2.378 3.9 2.537 4.862.803 4.862-.691 0-1.783-1.683-2.426-3.74Z" class="path7317"/>
          <path fill="#EB6565" d="M173.562 317.113c-1.836-2.029-2.113-3.172-.77-3.172.487 0 1.622 1.125 2.523 2.5 1.898 2.897.682 3.363-1.753.672Z" class="path7313"/>
          <path fill="#EB6565" d="M218.592 315.408c-2.219-4.654-2.142-4.832.815-1.876 1.375 1.375 2.5 3.155 2.5 3.955 0 2.555-1.577 1.565-3.315-2.079Z" class="path7311"/>
          <path fill="#EB6565" d="M167.406 310.264c-2.892-2.399-2.91-2.463-.499-1.798 2.986.824 5.532 3.028 4.345 3.762-.465.288-2.196-.596-3.846-1.964Z" class="path7309"/>
          <path fill="#EB6565" d="M161.912 306.448c-.704-.849-1.386-2.547-1.515-3.775-.382-3.626-.425-3.694-1.99-3.093-1.695.65-1.947-.819-.584-3.402.504-.955 1.553-3.312 2.331-5.237.778-1.925 1.942-4.625 2.586-6 1.086-2.318 1.126-2.245.549 1-.343 1.925-1.288 4.8-2.1 6.389-1.138 2.226-1.225 3.441-.379 5.297.603 1.325 1.097 3.422 1.097 4.661 0 1.24.532 2.786 1.183 3.437.651.651.94 1.426.643 1.724-.298.297-1.117-.153-1.821-1.001Z" class="path7305"/>
          <path fill="#EB6565" d="M213.097 301.362c-1.205-.844-2.19-2.036-2.19-2.649s-.747-1.94-1.661-2.949c-2.1-2.321-1.327-3.149 1.824-1.951 1.598.608 2.842 2.239 3.606 4.727.641 2.09 1.041 3.925.888 4.078-.153.152-1.263-.413-2.467-1.256Z" class="path7303"/>
          <path fill="#EB6565" d="M209.907 287c0-.517.45-1.219 1-1.559.55-.339 1 .084 1 .941 0 .858-.45 1.559-1 1.559s-1-.423-1-.941Z" class="path7301"/>
          <path fill="#EB6565" d="M163.977 279.25c.039-.995.457-2.709.93-3.809.724-1.685.87-1.498.93 1.191.038 1.755-.38 3.47-.93 3.809-.55.34-.968-.196-.93-1.191Z" class="path7299"/>
          <path fill="#EB6565" d="M208.243 273.374c-.331-.862-.15-2.018.401-2.57.671-.67 1.166-.151 1.494 1.567.533 2.788-.916 3.555-1.895 1.003Z" class="path7295"/>
          <path fill="#EB6565" d="M199.907 270.441c0-.825.45-1.5 1-1.5s1 .675 1 1.5-.45 1.5-1 1.5-1-.675-1-1.5Z" class="path7293"/>
          <path fill="#EB6565" d="M194.907 262.892c0-2.175 3.11-6.951 4.526-6.951 2.268 0 1.752 2.632-1.072 5.455-2.791 2.792-3.454 3.079-3.454 1.496Z" class="path7291"/>
        </g>
        <path fill="#EB6565" d="M171.907 210.382c0-.857.45-1.28 1-.941.55.34 1 1.042 1 1.559 0 .518-.45.941-1 .941s-1-.701-1-1.559Z" class="path7287"/>
      </g>
      <g class="g7439">
        <path fill="#EB6565" d="M130.633 176.952c-9.226-.949-16.994-1.945-17.263-2.214-.269-.269.192-2.12 1.024-4.112 1.342-3.21 1.343-3.557.013-3.046-1.664.639-2.078-1.643-.578-3.189.507-.522 1.219-2.565 1.581-4.538.576-3.135.273-3.953-2.393-6.47-1.679-1.585-3.965-5.002-5.08-7.593-1.115-2.592-2.89-4.987-3.945-5.322-1.055-.334-2.417-1.827-3.027-3.317-3.02-7.38-10.146-16.21-13.081-16.21-.907 0-3.25-1.687-5.207-3.75-1.957-2.062-5.406-5.321-7.664-7.241-3.42-2.909-4.106-4.101-4.106-7.143 0-2.35-.544-3.86-1.525-4.237-.965-.37-1.355-1.417-1.063-2.857 1.629-8.013 1.536-10.45-.479-12.613-1.12-1.201-1.78-2.597-1.468-3.102.312-.505.11-1.201-.449-1.547-.566-.35-1.016.31-1.016 1.49 0 1.165-.45 1.84-1 1.5-.55-.34-1-3.726-1-7.525 0-6.613-2.205-13.975-4.185-13.975-.448 0-.815-2.256-.815-5.015 0-3.759-.775-6.389-3.095-10.5-1.703-3.016-3.503-5.736-4-6.044-.498-.307-.905-2.017-.905-3.8 0-1.782-.532-3.773-1.183-4.424-.651-.65-.869-1.498-.484-1.883s1.233-.168 1.884.483c1.747 1.747 2.783 1.443 2.783-.817 0-1.11-.667-2-1.5-2-.825 0-1.5-.468-1.5-1.041s-.87-1.975-1.932-3.115c-1.062-1.14-2.224-3.934-2.583-6.209-.359-2.274-1.74-6.264-3.069-8.866-1.329-2.603-2.416-5.19-2.416-5.75 0-1.406 9.095-1.29 38.5.496 29.295 1.778 35.5 2.366 35.5 3.367 0 .405-2.261 3.082-5.024 5.949-3.905 4.051-4.827 5.597-4.141 6.94 2.815 5.51 1.678 14.732-1.662 13.481-1.51-.565-1.527-.441-.173 1.268a57.479 57.479 0 0 0 3.25 3.687c1.864 1.91 2.282 4.781.924 6.343-1.577 1.814-3.279 8.977-3.315 13.95-.054 7.518.134 8.56 1.641 9.139 1.126.432 1.298 3.585.927 16.972-.39 14.047-.236 16.525 1.058 17.022.833.32 1.515 1.176 1.515 1.903 0 .727.719 2.04 1.597 2.919.878.878 1.348 2.246 1.044 3.039-.57 1.485.781 2.787 3.284 3.166.784.118 1.873 1.015 2.421 1.994.547.978 1.988 2.771 3.2 3.984 1.213 1.213 3.27 3.699 4.57 5.525 1.3 1.826 3.848 4.623 5.663 6.217 1.815 1.593 3.211 3.622 3.101 4.509-.109.886.159 2.897.596 4.469.526 1.889.397 3.103-.379 3.583-.867.535-.894 1.463-.104 3.54 1.021 2.686 1.134 2.728 2.457.919 1.585-2.167 3.05-1.235 3.05 1.941 0 1.493.617 2.16 2 2.16 1.665 0 2.024.715 2.145 4.27.171 5.049 1.447 6.871 5.425 7.745 2.481.545 3.029 1.25 3.562 4.586.347 2.169 1.022 4.184 1.499 4.48.478.295.869 2.31.869 4.477 0 3.911-.029 3.94-3.75 3.809-2.063-.072-11.298-.908-20.524-1.857Z" class="path7285"/>
        <path fill="#EB6565" d="M75.14 169.492c-3.573-1.973-3.686-2.428-.872-3.498 1.97-.749 2.643-1.707 2.654-3.778.02-3.535 1.64-6.472 2.342-4.247 1.37 4.337 1.474 6.79.415 9.722-1.294 3.583-1.306 3.588-4.54 1.801Z" class="path7283"/>
        <path fill="#EB6565" d="M2.903 148.941c-.037-1.375-.71-3.625-1.496-5-1.876-3.281-1.876-7.443 0-9 1.277-1.06 1.5-.793 1.5 1.795 0 1.671.46 3.192 1.024 3.38 1.84.614 2.247 7.159.58 9.325-1.51 1.962-1.542 1.952-1.608-.5Z" class="path7275"/>
        <path fill="#EB6565" d="M143.884 139.834a806.485 806.485 0 0 1-5.872-6.393c-3.101-3.447-4.62-11.365-2.347-12.237 1.649-.633 6.242 4.438 6.103 6.737-.205 3.363.264 4 2.938 4 2.592 0 2.77.251 2.404 3.387-.217 1.862.134 4.375.782 5.585 2.107 3.937.156 3.412-4.008-1.079Z" class="path7273"/>
      </g>
      <g class="g7428">
        <g class="g7399">
          <path fill="#EB6565" d="M162.513 156.525c.334-.871 1.047-1.584 1.584-1.584 1.315 0 .492 2.273-1.003 2.771-.731.244-.954-.213-.581-1.187Z" class="path7279"/>
          <path fill="#EB6565" d="M167.66 153.496c-4.84-2.525-4.873-2.587-2.771-5.259 1.11-1.411 2.018-3.843 2.018-5.405 0-3.382 4.666-6.572 6.583-4.502 2.128 2.298 2.457 8.866.641 12.813-1.925 4.183-2.537 4.405-6.471 2.353Z" class="path7277"/>
        </g>
        <g class="g7405">
          <path fill="#EB6565" d="M258.474 247.145c.598-4.508.457-5.061-1.453-5.667-2.907-.923-4.681-4.276-2.494-4.714 1.377-.275 1.291-.688-.587-2.823-1.545-1.755-2.033-1.971-1.639-.726.49 1.549.28 1.625-1.667.604-2.214-1.162-2.216-1.156-.322.977 1.048 1.18 1.412 2.145.809 2.145-.603 0-1.393-.48-1.756-1.068-.363-.587-1.218-.854-1.9-.592-.682.261-1.743.164-2.358-.216-1.606-.993-6.369-12.124-5.187-12.124a.994.994 0 0 0 .987-.997c0-1.277-6.335-3.935-7.002-2.937-.277.413-3.202-.539-6.5-2.116-3.299-1.578-5.605-2.886-5.126-2.909.48-.022.305-.725-.39-1.562-.694-.836-1.412-3.195-1.596-5.241-.184-2.046-.796-3.874-1.36-4.062-1.258-.42-1.377-4.176-.132-4.176.492 0 .869-1.012.839-2.25-.031-1.237.23-2.925.579-3.75.403-.952-.333-2.204-2.015-3.429-2.294-1.671-2.562-1.704-2.003-.247.6 1.563.469 1.568-1.824.065-1.512-.991-2.47-2.567-2.47-4.063 0-1.478-.422-2.183-1.068-1.783-.588.363-.854 1.218-.593 1.899.262.682.058 1.874-.452 2.649-.758 1.151-1.29.977-2.907-.951-1.089-1.299-1.98-3.002-1.98-3.786 0-1.099-.442-1.187-1.939-.386-2.302 1.232-2.413 1.076-4.154-5.849-1.239-4.93-1.71-5.534-5.63-7.214-2.494-1.069-4.277-2.502-4.277-3.436 0-.881-1.125-3.077-2.5-4.88-2.869-3.761-3.177-5.589-.941-5.589.857 0 1.262-.48.899-1.068-.363-.587-1.264-.836-2.002-.553-1.373.527-7.33-5.47-7.613-7.663-.086-.669-.243-2.422-.35-3.896-.33-4.574-2.538-8.685-4.841-9.013-1.839-.262-2.152-.962-2.152-4.807 0-3.53-.737-5.524-3.42-9.25-1.88-2.612-3.75-4.75-4.155-4.75-.405 0-.777-3.784-.827-8.409-.103-9.51-.524-11.207-2.939-11.839-1.067-.279-2.184-2.322-2.992-5.477-.709-2.768-2.837-7.434-4.728-10.37-2.439-3.785-3.439-6.487-3.439-9.292 0-2.345-.704-4.733-1.729-5.866-1.639-1.81-1.639-1.961 0-2.878 2.271-1.271 2.181-2.48-.385-5.16l-2.113-2.209.681 2.25c.762 2.519-.899 3.139-1.84.687-.33-.86-.962-1.34-1.405-1.066-.443.274-3.934-.26-7.757-1.186-6.515-1.579-6.933-1.846-6.654-4.252.225-1.944-.329-2.853-2.278-3.742-1.417-.645-2.851-1.89-3.187-2.766-.384-1-.856-1.196-1.269-.528-.847 1.37-8.064-3.428-8.064-5.36 0-.765-1.12-2.272-2.488-3.349-2.19-1.722-2.365-2.312-1.459-4.91 1.024-2.937.794-8.314-.487-11.384-.414-.994.209-2.596 1.632-4.198l2.302-2.591 16.5 8.58a3850.267 3850.267 0 0 1 31 16.323c62.187 33.213 61.107 32.685 68 33.263 27.578 2.312 56.049 4.886 58.76 5.312 2.835.445 3.128.759 2.247 2.404-.557 1.04-.628 2.13-.159 2.42.469.29 1.421 5.38 2.116 11.31.694 5.93 1.946 12.808 2.781 15.283 1.204 3.568 1.39 7.297.895 18-.748 16.192-1.297 19.128-3.51 18.767-1.225-.2-1.599.479-1.506 2.733.109 2.611.203 15.286.209 28 .001 2.2.151 4.9.334 6 .311 1.868-.134 1.978-6.724 1.666-8.899-.422-9.97.522-8.423 7.422.593 2.647 2.543 7.31 4.334 10.362 5.796 9.879 7.172 14.537 5.552 18.798-.987 2.596 1.202 9.252 3.043 9.252.578 0 1.051 1.287 1.051 2.86 0 3.875-6.495 11.106-15.021 16.723-3.687 2.43-6.991 4.417-7.342 4.417-.35 0-.637-1.162-.637-2.583 0-3.188-2.211-2.758-3 .583-.305 1.294-1.127 2.543-1.825 2.775-.97.324-1.114-.756-.608-4.571Z" class="path7289"/>
          <path fill="#EB6565" d="M111.067 47.394c-2.588-5.68-.649-7.226 3.392-2.703 1.77 1.981 2.268 2.215 1.782.836-.466-1.323-.313-1.69.496-1.19 1.588.98 1.47 2.161-.402 4.033-2.255 2.255-3.938 1.943-5.268-.976Z" class="path3930"/>
        </g>
      </g>
    </g>
  </g>
</svg>
